<svg width="46" height="58" viewBox="0 0 46 58" fill="none" xmlns="http://www.w3.org/2000/svg">
<path d="M19.3062 15.2439C17.8395 18.6821 16.3729 22.6115 16.3729 22.6115H19.3062C19.3062 22.6115 20.284 19.1733 21.7507 15.7351C23.2173 12.2969 23.7062 11.8058 25.1729 8.85873C26.6395 5.91171 31.0395 1 30.5507 1C30.0618 1 24.684 7.87639 24.684 7.87639C24.684 7.87639 20.7729 11.8058 19.3062 15.2439Z" stroke="#0B3D3A" stroke-width="0.8"/>
<path d="M10.5062 15.2439C9.03954 18.6821 7.57288 22.6115 7.57288 22.6115H10.5062C10.5062 22.6115 11.484 19.1733 12.9507 15.7351C14.4173 12.2969 14.9062 11.8058 16.3729 8.85873C17.8395 5.91171 22.2395 1 21.7507 1C21.2618 1 15.884 7.87639 15.884 7.87639C15.884 7.87639 11.9729 11.8058 10.5062 15.2439Z" stroke="#0B3D3A" stroke-width="0.8"/>
<path d="M22.1881 24.3486H1.15842C1.15842 24.3486 0.80198 35.3508 1.15842 35.3508C1.51485 35.3508 2.9406 34.2861 5.07921 34.2861C7.21783 34.2861 8.64357 35.7057 11.8515 35.7057C15.0594 35.7057 18.9802 33.9312 18.9802 33.9312L22.1881 24.3486Z" stroke="#0B3D3A" stroke-width="0.8"/>
<path d="M5.07921 35.7057C3.65351 35.7057 1.15842 36.7705 1.15842 36.7705V57.0004H45V35.7057C45 35.7057 42.7728 35.389 42.1485 35.7057C41.5242 36.0225 37.5148 37.4803 34.6634 37.4803C31.8119 37.4803 28.6039 35.3508 28.2475 35.7057C27.8911 36.0607 30.0297 41.7392 30.0297 44.5785C30.0297 47.4178 29.3168 49.9022 28.6039 50.612C27.8911 51.3218 26.1089 52.7414 22.5445 52.3865C18.9802 52.0316 17.9109 50.9669 17.5544 50.612C17.198 50.2571 15.4158 47.4178 15.4158 44.5785C15.4158 41.7392 18.6237 36.0607 18.6237 35.7057C18.6237 35.3508 14.3465 37.1254 11.8515 37.1254C9.35648 37.1254 6.50492 35.7057 5.07921 35.7057Z" stroke="#0B3D3A" stroke-width="0.8"/>
<path d="M45 24.3486H28.9604L27.5346 34.2861C27.5346 34.2861 30.2965 35.072 34.6634 35.3889C39.0302 35.7057 40.8172 34.6567 41.795 34.2861C42.7728 33.9155 45 34.2861 45 34.2861V24.3486Z" stroke="#0B3D3A" stroke-width="0.8"/>
<path d="M18.624 44.5779C18.6239 43.8681 19.6932 40.6739 20.0497 39.2543C20.4062 37.8346 22.4809 30.7523 23.2576 27.8971C24.0343 25.042 24.6841 22.1267 26.1091 19.0244C27.5341 15.9221 29.317 13.7007 31.0992 11.2163C32.8814 8.73198 38.5308 1.49751 38.9408 1.98868C39.3508 2.47985 34.4991 7.67344 32.525 11.2163C30.5508 14.7593 30.03 16.54 28.9606 19.0244C27.8912 21.5088 26.822 24.7029 26.1091 27.8971C25.3962 31.0913 25.7526 37.4797 25.7527 39.2543C25.7527 41.0288 26.822 43.1583 26.822 44.5779C26.822 45.9975 26.822 49.9016 22.5448 49.5467C18.2675 49.1917 18.624 45.2877 18.624 44.5779Z" stroke="#0B3D3A" stroke-width="0.8"/>
</svg>
