<svg width="47" height="58" viewBox="0 0 47 58" fill="none" xmlns="http://www.w3.org/2000/svg">
<path d="M19.0243 44.3791C19.0242 43.6565 20.1178 40.4049 20.4824 38.9598C20.847 37.5146 22.9689 30.3049 23.7632 27.3985C24.5576 24.492 25.2222 21.5243 26.6795 18.3662C28.1369 15.2081 29.9603 12.9468 31.7831 10.4178C33.6058 7.88878 39.3836 0.524266 39.8029 1.02427C40.2222 1.52427 35.2602 6.81121 33.2412 10.4178C31.2222 14.0244 30.6895 15.8372 29.5958 18.3662C28.5022 20.8952 27.4086 24.1468 26.6795 27.3985C25.9505 30.6501 26.315 37.1533 26.315 38.9598C26.3151 40.7662 27.4086 42.9339 27.4086 44.3791C27.4087 45.8243 27.4086 49.7985 23.0342 49.4372C18.6597 49.0759 19.0243 45.1017 19.0243 44.3791Z" stroke="#0B3D3A" stroke-width="0.8"/>
<path d="M22.6697 23.7856H1.16202C1.16202 23.7856 0.79748 34.9856 1.16202 34.9856C1.52655 34.9856 2.9847 33.9017 5.17192 33.9017C7.35914 33.9017 8.81729 35.3468 12.0981 35.3468C15.379 35.3468 19.3889 33.5404 19.3889 33.5404L22.6697 23.7856Z" stroke="#0B3D3A" stroke-width="0.8"/>
<path d="M5.17192 35.3468C3.71381 35.3468 1.16202 36.4307 1.16202 36.4307V57.0243H46V35.3468C46 35.3468 43.7222 35.0244 43.0837 35.3468C42.4452 35.6693 38.3447 37.1533 35.4284 37.1533C32.5121 37.1533 29.2313 34.9856 28.8668 35.3468C28.5022 35.7081 30.6895 41.4888 30.6895 44.3791C30.6895 47.2694 29.9604 49.7985 29.2313 50.521C28.5022 51.2436 26.6796 52.6888 23.0342 52.3275C19.3888 51.9662 18.2952 50.8823 17.9307 50.521C17.5661 50.1597 15.7434 47.2694 15.7434 44.3791C15.7434 41.4888 19.0243 35.7081 19.0243 35.3468C19.0243 34.9856 14.6498 36.792 12.0981 36.792C9.5464 36.792 6.63003 35.3468 5.17192 35.3468Z" stroke="#0B3D3A" stroke-width="0.8"/>
<path d="M46 23.7856H29.5958L28.1377 33.9017C28.1377 33.9017 30.9623 34.7017 35.4284 35.0243C39.8945 35.3468 41.7222 34.279 42.7222 33.9017C43.7222 33.5244 46 33.9017 46 33.9017V23.7856Z" stroke="#0B3D3A" stroke-width="0.8"/>
</svg>
