<svg width="47" height="58" viewBox="0 0 47 58" fill="none" xmlns="http://www.w3.org/2000/svg">
<path d="M29.0978 1L30.0958 1.9975M31.0958 1.9975L32.2222 1.00843M30.0958 2.98854L29.0957 3.97972M31.0958 2.98854L32.096 3.97972M17.7222 14.379L18.7202 15.3765M19.7202 15.3765L20.8465 14.3874M18.7202 16.3675L17.72 17.3587M19.7202 16.3675L20.7203 17.3587M42.224 18.3365L43.222 19.334M44.222 19.334L45.3484 18.3449M43.222 20.3251L42.2219 21.3162M44.222 20.3251L45.2222 21.3162M38.0978 8.42435L39.0958 9.42185M40.0958 9.42185L41.2222 8.43277M39.0958 10.4129L38.0957 11.4041M40.0958 10.4129L41.096 11.4041M20.4824 39.0974C20.1178 40.5296 19.0242 43.7521 19.0243 44.4682C19.0243 45.1843 18.6597 49.1229 23.0342 49.4809C27.4086 49.839 27.4087 45.9004 27.4086 44.4682C27.4086 43.036 26.3151 40.8877 26.315 39.0974C26.315 37.3072 25.9505 30.8622 26.6795 27.6398C27.4086 24.4173 28.5022 21.1948 29.5958 18.6885C30.6895 16.1821 31.2222 14.3856 33.2412 10.8113C35.2602 7.23706 40.2222 1.9975 39.8029 1.50198C39.3836 1.00647 33.6058 8.30497 31.7831 10.8113C29.9603 13.3177 28.1369 15.5587 26.6795 18.6885C25.2222 21.8182 24.5576 24.7593 23.7632 27.6398C22.9689 30.5202 20.847 37.6652 20.4824 39.0974ZM1.16202 24.0593H22.6697L19.3889 33.7266C19.3889 33.7266 15.379 35.5169 12.0981 35.5169C8.81729 35.5169 7.35914 34.0847 5.17192 34.0847C2.9847 34.0847 1.52655 35.1588 1.16202 35.1588C0.79748 35.1588 1.16202 24.0593 1.16202 24.0593ZM1.16202 36.591C1.16202 36.591 3.71381 35.5169 5.17192 35.5169C6.63003 35.5169 9.5464 36.9491 12.0981 36.9491C14.6498 36.9491 19.0243 35.1588 19.0243 35.5169C19.0243 35.8749 15.7434 41.6038 15.7434 44.4682C15.7434 47.3326 17.5661 50.197 17.9307 50.5551C18.2952 50.9131 19.3888 51.9873 23.0342 52.3453C26.6795 52.7034 28.5022 51.2712 29.2313 50.5551C29.9604 49.839 30.6895 47.3326 30.6895 44.4682C30.6895 41.6038 28.5022 35.8749 28.8668 35.5169C29.2313 35.1588 32.5121 37.3072 35.4284 37.3072C38.3447 37.3072 42.4452 35.8364 43.0837 35.5169C43.7222 35.1974 46 35.5169 46 35.5169V57H1.16202V36.591ZM29.5958 24.0593H46V34.0847C46 34.0847 43.7222 33.7108 42.7222 34.0847C41.7222 34.4586 39.8945 35.5169 35.4284 35.1972C30.9623 34.8775 28.1377 34.0847 28.1377 34.0847L29.5958 24.0593Z" stroke="#0B3D3A" stroke-width="0.8"/>
</svg>
