<svg width="47" height="58" viewBox="0 0 47 58" fill="none" xmlns="http://www.w3.org/2000/svg">
<path d="M12.0981 11.0244L42.7222 21.5244M20.4824 38.9598C20.1178 40.4049 19.0242 43.6565 19.0243 44.3791C19.0243 45.1017 18.6597 49.0759 23.0342 49.4372C27.4086 49.7985 27.4087 45.8243 27.4086 44.3791C27.4086 42.9339 26.3151 40.7662 26.315 38.9598C26.315 37.1533 25.9505 30.6501 26.6795 27.3985C27.4086 24.1468 28.5022 20.8952 29.5958 18.3662C30.6895 15.8372 31.2222 14.0244 33.2412 10.4178C35.2602 6.81121 40.2222 1.52427 39.8029 1.02427C39.3836 0.524266 33.6058 7.88878 31.7831 10.4178C29.9603 12.9468 28.1369 15.2081 26.6795 18.3662C25.2222 21.5243 24.5576 24.492 23.7632 27.3985C22.9689 30.3049 20.847 37.5146 20.4824 38.9598ZM1.16202 23.7856H22.6697L19.3889 33.5404C19.3889 33.5404 15.379 35.3468 12.0981 35.3468C8.81729 35.3468 7.35914 33.9017 5.17192 33.9017C2.9847 33.9017 1.52655 34.9856 1.16202 34.9856C0.79748 34.9856 1.16202 23.7856 1.16202 23.7856ZM1.16202 36.4307C1.16202 36.4307 3.71381 35.3468 5.17192 35.3468C6.63003 35.3468 9.5464 36.792 12.0981 36.792C14.6498 36.792 19.0243 34.9856 19.0243 35.3468C19.0243 35.7081 15.7434 41.4888 15.7434 44.3791C15.7434 47.2694 17.5661 50.1597 17.9307 50.521C18.2952 50.8823 19.3888 51.9662 23.0342 52.3275C26.6795 52.6888 28.5022 51.2436 29.2313 50.521C29.9604 49.7985 30.6895 47.2694 30.6895 44.3791C30.6895 41.4888 28.5022 35.7081 28.8668 35.3468C29.2313 34.9856 32.5121 37.1533 35.4284 37.1533C38.3447 37.1533 42.4452 35.6693 43.0837 35.3468C43.7222 35.0244 46 35.3468 46 35.3468V57.0243H1.16202V36.4307ZM29.5958 23.7856H46V33.9017C46 33.9017 43.7222 33.5244 42.7222 33.9017C41.7222 34.279 39.8945 35.3468 35.4284 35.0243C30.9623 34.7017 28.1377 33.9017 28.1377 33.9017L29.5958 23.7856Z" stroke="#0B3D3A" stroke-width="0.8"/>
</svg>
