<svg width="38" height="58" viewBox="0 0 38 58" fill="none" xmlns="http://www.w3.org/2000/svg">
<path d="M14.77 16.2716C14.77 16.2716 11.53 19.8251 12.79 23.6519C14.05 27.4787 17.56 28.9366 17.56 28.9366M3.25 34.3126C3.25 34.3126 7.93032 39.0504 18.3702 39.0504C28.81 39.0503 34.57 34.3126 34.57 34.3126M17.8302 1.51121C17.8302 1.51121 12.7903 9.62045 11.4402 11.9894C10.09 14.3584 8.11033 18.3678 7.66016 20.1898C7.21 22.0118 4.96016 33.8571 18.3702 34.3126C31.7802 34.7682 30.07 22.0118 29.7102 20.1898C29.3503 18.3678 27.46 14.814 25.9302 11.9894C24.4003 9.16488 19.8102 1.51121 19.8102 1.51121C18.9937 0.857783 18.5565 0.801981 17.8302 1.51121ZM5.14 43.8794C5.14 45.0368 4.21323 45.9751 3.07 45.9751C1.92677 45.9751 1 45.0368 1 43.8794C1 42.722 1.92677 41.7838 3.07 41.7838C4.21323 41.7838 5.14 42.722 5.14 43.8794ZM12.79 47.3418C12.79 48.4992 11.8632 49.4374 10.72 49.4374C9.57677 49.4374 8.65 48.4992 8.65 47.3418C8.65 46.1844 9.57677 45.2462 10.72 45.2462C11.8632 45.2462 12.79 46.1844 12.79 47.3418ZM20.89 48.4352C20.89 49.5926 19.9632 50.5308 18.82 50.5308C17.6768 50.5308 16.75 49.5926 16.75 48.4352C16.75 47.2778 17.6768 46.3395 18.82 46.3395C19.9632 46.3395 20.89 47.2778 20.89 48.4352ZM29.17 47.3418C29.17 48.4992 28.2432 49.4374 27.1 49.4374C25.9568 49.4374 25.03 48.4992 25.03 47.3418C25.03 46.1844 25.9568 45.2462 27.1 45.2462C28.2432 45.2462 29.17 46.1844 29.17 47.3418ZM37 43.8794C37 45.0368 36.0732 45.9751 34.93 45.9751C33.7868 45.9751 32.86 45.0368 32.86 43.8794C32.86 42.722 33.7868 41.7838 34.93 41.7838C36.0732 41.7838 37 42.722 37 43.8794ZM6.58 51.7153C6.58 52.5708 5.895 53.2643 5.05 53.2643C4.205 53.2643 3.52 52.5708 3.52 51.7153C3.52 50.8599 4.205 50.1664 5.05 50.1664C5.895 50.1664 6.58 50.8599 6.58 51.7153ZM13.24 54.7221C13.24 55.5776 12.555 56.2711 11.71 56.2711C10.865 56.2711 10.18 55.5776 10.18 54.7221C10.18 53.8667 10.865 53.1732 11.71 53.1732C12.555 53.1732 13.24 53.8667 13.24 54.7221ZM20.62 55.451C20.62 56.3065 19.935 57 19.09 57C18.245 57 17.56 56.3065 17.56 55.451C17.56 54.5956 18.245 53.9021 19.09 53.9021C19.935 53.9021 20.62 54.5956 20.62 55.451ZM27.64 54.7221C27.64 55.5776 26.955 56.2711 26.11 56.2711C25.265 56.2711 24.58 55.5776 24.58 54.7221C24.58 53.8667 25.265 53.1732 26.11 53.1732C26.955 53.1732 27.64 53.8667 27.64 54.7221ZM34.39 51.7153C34.39 52.5708 33.705 53.2643 32.86 53.2643C32.015 53.2643 31.33 52.5708 31.33 51.7153C31.33 50.8599 32.015 50.1664 32.86 50.1664C33.705 50.1664 34.39 50.8599 34.39 51.7153Z" stroke="#FFFEF5" stroke-width="0.8"/>
</svg>
