<svg width="48" height="58" viewBox="0 0 48 58" fill="none" xmlns="http://www.w3.org/2000/svg">
<path d="M14.9132 1C14.9132 1 15.7786 5.3285 15.9783 5.86956C16.178 6.41063 16.5774 7.18841 16.7106 7.3913C16.8437 7.5942 17.1766 7.83092 17.4428 8.30435C17.7091 8.77778 18.7077 10.8068 18.9074 11.7198C19.1071 12.6328 19.1404 13.2415 19.2069 14.0193C19.2429 14.4394 19.4827 15.3723 19.7062 16.2482M11.8509 27.0386C11.8509 27.0386 12.1838 27.8164 12.7164 27.8164C13.2489 27.8164 13.4153 27.2077 13.4153 27.2077C13.4153 27.2077 16.9477 14.3963 17.11 14.4251C17.2722 14.4539 18.4367 19.9603 18.5745 19.9372C18.5745 19.9372 19.0405 20.6473 19.5731 20.4444C20.1056 20.2415 20.2388 19.6328 20.2388 19.6328C20.2388 19.6328 20.1722 18.686 20.1056 18.0097C20.075 17.6986 19.8965 16.9941 19.7062 16.2482M11.8509 27.0386L13.4153 17.6039M11.8509 27.0386L11.5514 28.4928C11.5514 28.4928 11.1852 29.1353 10.6194 29C10.0535 28.8647 10.0868 27.8164 10.0868 27.8164V26.599M10.0868 26.599C10.0868 26.599 9.78726 27.0386 9.32127 27.0386C9.15398 27.0386 9.02529 26.9646 8.92906 26.8696M10.0868 26.599L10.6527 21.628L11.1187 17.0966M9.32127 15.8454V18.4155L8.73625 23.3865M8.73625 23.3865C8.73625 23.3865 8.62229 23.9614 8.589 24.6377C8.55572 25.314 8.68886 26.4638 8.68886 26.4638C8.68886 26.4638 8.75724 26.7 8.92906 26.8696M8.73625 23.3865C8.73625 23.3865 8.822 23.4879 8.28944 23.5556C7.75687 23.6232 7.59045 22.2705 7.59045 22.2705L7.82344 14.7295L8.28944 10.3333L9.32127 5.97101L8.65557 2.35266M32.6541 1.03382C32.6541 1.03382 31.7887 5.36232 31.589 5.90338C31.3893 6.44444 30.9899 7.22222 30.8567 7.42512C30.7236 7.62802 30.3907 7.86473 30.1245 8.33816C29.8582 8.81159 28.8596 10.8406 28.6599 11.7536C28.4602 12.6667 28.4269 13.2754 28.3603 14.0531C28.3249 14.4678 28.0907 15.3822 27.8697 16.2482M35.7164 27.0725C35.7164 27.0725 35.3835 27.8502 34.8509 27.8502C34.3184 27.8502 34.152 27.2415 34.152 27.2415C34.152 27.2415 30.6195 14.4301 30.4573 14.4589C30.2951 14.4877 29.1306 19.9941 28.9928 19.971C28.9928 19.971 28.5268 20.6812 27.9942 20.4783C27.4616 20.2754 27.3285 19.6667 27.3285 19.6667C27.3285 19.6667 27.3951 18.7198 27.4616 18.0435C27.4927 17.7277 27.6762 17.0066 27.8697 16.2482M35.7164 27.0725L34.152 17.6377M35.7164 27.0725L36.0159 28.5266C36.0159 28.5266 36.3821 29.1691 36.9479 29.0338C37.5137 28.8985 37.4805 27.8502 37.4805 27.8502V26.6328M37.4805 26.6328C37.4805 26.6328 37.78 27.0725 38.246 27.0725C38.5652 27.0725 38.7438 26.8028 38.8247 26.6328M37.4805 26.6328L36.9146 21.6618L36.4486 17.1304M38.246 15.8792V18.4493L38.831 23.4203M38.8396 23.466C38.8668 23.6147 38.9506 24.1079 38.9783 24.6715C39.0116 25.3478 38.8784 26.4976 38.8784 26.4976C38.8784 26.4976 38.8619 26.5547 38.8247 26.6328M38.8396 23.466C38.8342 23.4363 38.831 23.4203 38.831 23.4203M38.8396 23.466C38.8151 23.4391 38.831 23.4203 38.831 23.4203M38.8396 23.466C38.872 23.5015 38.9749 23.5509 39.2779 23.5894C39.8104 23.657 39.9768 22.3043 39.9768 22.3043L39.7438 14.7633L39.2779 10.3671L38.246 6.00483L38.9117 2.38647M16.5109 5.90338C16.5109 5.90338 19.3734 3.97585 23.6006 4.04348C27.8278 4.11111 31.0897 5.90338 31.0897 5.90338M19.7062 16.2482C19.7062 16.2482 20.8379 15.744 23.7337 15.7101C26.6295 15.6763 27.8697 16.2482 27.8697 16.2482M10.6194 29.5411C10.6194 29.5411 11.0328 32.0566 12.104 35.1884M36.9479 29.5411C36.9479 29.5411 36.5502 32.0566 35.5013 35.1884M12.104 35.1884C12.104 35.1884 10.22 34.5459 9.15485 32.9565C8.08972 31.3671 7.65702 28.7633 7.65702 28.7633C7.68997 27.3297 8.0274 27.003 8.92906 26.8696M12.104 35.1884C12.9056 37.5321 14.0754 40.2209 15.716 42.4589M35.5013 35.1884C36.6218 34.784 37.2624 34.3586 38.4457 32.9565C38.4457 32.9565 40.1766 30.6908 39.9768 28.7633C39.7771 26.8357 38.8247 26.6328 38.8247 26.6328M35.5013 35.1884C34.7164 37.5321 33.5668 40.2209 31.9463 42.4589M15.716 42.4589C17.6849 45.145 20.3318 47.1818 23.8336 47.1932C27.3484 47.2048 29.9904 45.1602 31.9463 42.4589M15.716 42.4589L15.3792 48.5459C14.9866 50.8618 12.3835 53.1111 11.5181 53.5507C10.6527 53.9903 1 57 1 57M31.9463 42.4589L32.3546 48.5459C32.4837 50.7243 33.7552 52.8406 35.5013 53.5507C37.2475 54.2609 47 57 47 57" stroke="#FFFEF5" stroke-width="0.8"/>
</svg>
