<svg width="56" height="58" viewBox="0 0 56 58" fill="none" xmlns="http://www.w3.org/2000/svg">
<path d="M25.2069 6.6C20.8773 6.6 16.1006 6.6 15.5862 6.6C14.6552 6.6 13.4138 5.66667 13.4138 3.48889C13.4138 1.31111 14.9655 1 15.5862 1C16.2069 1 31.4138 1 32.3448 1C33.2759 1 34.8276 1.31111 34.8276 3.48889C34.8276 5.66667 33.2759 6.6 32.3448 6.6C32.1863 6.6 31.6232 6.6 30.7931 6.6M25.2069 6.6V11.8889M25.2069 6.6C27.3802 6.6 29.4408 6.6 30.7931 6.6M30.7931 6.6V11.8889M34.5172 17.4889C34.5172 17.4889 34.5172 14.0667 34.5172 13.4444C34.5172 12.8222 34.0903 12.0745 32.9655 11.8889C32.9655 11.8889 23.9655 11.8889 23.0345 11.8889C22.1034 11.8889 21.7931 12.8222 21.7931 13.4444C21.7931 14.0667 21.7931 17.4889 21.7931 17.4889M34.5172 17.4889H21.7931M34.5172 17.4889C34.5172 17.4889 38.8621 18.4222 41.6552 21.2222C44.4483 24.0222 46 28.3778 46 29.9333C46 31.4889 42.5862 51.7111 42.2759 53.8889C41.9655 56.0667 41.3448 57 40.1034 57C38.8621 57 16.8276 57 15.5862 57C14.3448 57 13.7241 55.7556 13.4138 53.8889C13.1034 52.0222 10.3103 31.8 10.3103 29.9333C10.3103 28.0667 11.8621 24.3333 14.9655 21.2222C18.069 18.1111 21.7931 17.4889 21.7931 17.4889M55 2.24444L1 56.3778" stroke="#FFFEF5" stroke-width="0.8"/>
</svg>
