<svg width="57" height="58" viewBox="0 0 57 58" fill="none" xmlns="http://www.w3.org/2000/svg">
<path d="M14.2784 8.25C14.2463 5.21084 14.1889 2.5 14.1889 2.5H22.6511C22.6511 2.5 22.6511 5.20626 22.6511 8.25M14.2784 8.25C14.3131 11.5382 14.3182 15.2106 14.1889 16.25C13.94 18.25 8.96222 21.25 8.96222 23.75C8.96222 26.25 8.96222 50.25 8.96222 51.75C8.96222 53.25 9.46 54 10.7044 54C11.9489 54 24.8911 54 25.8867 54C26.8822 54 27.8778 53.25 27.8778 51.75C27.8778 50.25 28.1267 25.5 27.8778 23.75C27.6289 22 22.6511 18.5 22.6511 16.25C22.6511 15.0915 22.6511 11.4806 22.6511 8.25M14.2784 8.25H22.6511M31.86 25.5V33C31.86 33 32.3578 39.75 38.8289 39.75M38.8289 39.75C45.3 39.75 46.0467 33 46.0467 33V21H36.34M38.8289 39.75V54H31.86H46.0467M56.5 1L0.5 57" stroke="#0B3D3A" stroke-width="0.8"/>
</svg>
