<svg width="54" height="58" viewBox="0 0 54 58" fill="none" xmlns="http://www.w3.org/2000/svg">
<path d="M30.0914 11.0431C30.0914 11.7303 29.5326 12.2873 28.8433 12.2873C28.1539 12.2873 27.5951 11.7303 27.5951 11.0431C27.5951 10.3559 28.1539 9.79883 28.8433 9.79883C29.5326 9.79883 30.0914 10.3559 30.0914 11.0431Z" stroke="#0B3D3A" stroke-width="0.8"/>
<path d="M34.549 11.0431C34.549 11.7303 33.9902 12.2873 33.3009 12.2873C32.6116 12.2873 32.0527 11.7303 32.0527 11.0431C32.0527 10.3559 32.6116 9.79883 33.3009 9.79883C33.9902 9.79883 34.549 10.3559 34.549 11.0431Z" stroke="#0B3D3A" stroke-width="0.8"/>
<path d="M38.7392 11.0431C38.7392 11.7303 38.1804 12.2873 37.4911 12.2873C36.8017 12.2873 36.2429 11.7303 36.2429 11.0431C36.2429 10.3559 36.8017 9.79883 37.4911 9.79883C38.1804 9.79883 38.7392 10.3559 38.7392 11.0431Z" stroke="#0B3D3A" stroke-width="0.8"/>
<path d="M30.1805 14.8647C30.1805 15.5519 29.6217 16.109 28.9324 16.109C28.2431 16.109 27.6843 15.5519 27.6843 14.8647C27.6843 14.1775 28.2431 13.6205 28.9324 13.6205C29.6217 13.6205 30.1805 14.1775 30.1805 14.8647Z" stroke="#0B3D3A" stroke-width="0.8"/>
<path d="M34.6382 14.8647C34.6382 15.5519 34.0794 16.109 33.39 16.109C32.7007 16.109 32.1419 15.5519 32.1419 14.8647C32.1419 14.1775 32.7007 13.6205 33.39 13.6205C34.0794 13.6205 34.6382 14.1775 34.6382 14.8647Z" stroke="#0B3D3A" stroke-width="0.8"/>
<path d="M38.8283 14.8647C38.8283 15.5519 38.2695 16.109 37.5802 16.109C36.8909 16.109 36.3321 15.5519 36.3321 14.8647C36.3321 14.1775 36.8909 13.6205 37.5802 13.6205C38.2695 13.6205 38.8283 14.1775 38.8283 14.8647Z" stroke="#0B3D3A" stroke-width="0.8"/>
<path d="M19.3039 6.95465L3.61304 19.3083C3.20834 19.5518 2.54323 19.3972 2.45405 19.3083C2.36487 19.2195 1.38427 18.153 1.20592 17.8863C1.02756 17.6197 0.849276 16.8198 1.20592 16.4643C1.56256 16.1088 14.2222 4.99939 15.0246 4.46614C15.827 3.93289 18.1449 2.59976 18.9473 2.24426C19.7496 1.88875 22.0676 1 23.5832 1H41.1463C42.751 1 43.1968 2.24425 43.2859 2.86638C43.3751 3.48851 43.2859 5.88815 43.2859 6.51027C43.2859 7.1324 42.1269 8.64328 41.1463 8.64328H24.9205C24.9205 8.64328 22.0677 6.7769 21.2652 6.68802C20.4628 6.59915 19.3039 6.95465 19.3039 6.95465Z" stroke="#0B3D3A" stroke-width="0.8"/>
<path d="M24.4747 37.1724C24.9205 34.5061 27.2385 30.5067 27.2385 30.5067C27.2385 30.5067 30.8938 34.3284 33.7466 34.7727C36.5995 35.2171 40.2548 36.728 40.2548 36.728C40.2548 36.728 42.5728 38.0611 42.5727 40.994C42.5727 43.9269 41.592 45.8822 41.592 45.8822L39.3632 49.6149V51.9257C39.3632 51.9257 35.7079 53.0811 32.4985 52.7256C29.289 52.3701 26.971 51.3036 26.347 50.6814C25.7229 50.0593 24.4747 43.0381 24.4747 43.0381C24.4747 43.0381 24.029 39.8386 24.4747 37.1724Z" stroke="#0B3D3A" stroke-width="0.8"/>
<path d="M22.87 45.26C23.494 48.4595 24.9205 51.7479 24.9205 51.9257C24.9205 52.1034 24.3355 53.6154 22.87 52.7256C22.87 52.7256 19.3038 49.6149 18.3232 46.8598C17.3425 44.1047 17.1642 42.0605 17.1642 38.3278C17.1642 34.595 17.9666 30.329 19.6605 27.3072C21.3544 24.2854 23.9398 21.8856 25.1879 21.0859C26.4361 20.2862 31.6069 17.7087 37.0452 18.2419C42.4835 18.7752 46.5845 22.1526 48.3676 23.9299C50.1506 25.7073 52.2011 31.3066 52.2011 31.3066C52.2011 31.3066 53.4493 36.817 52.8252 40.4608C52.2011 44.1045 51.4879 45.6157 50.3289 46.8598C49.17 48.1039 46.5845 50.5927 45.8713 51.4813C45.1581 52.3699 44.7123 56.3694 44.7123 56.3694C44.3323 57.1075 43.9915 57.1141 43.2859 56.8138C43.2859 56.8138 42.6618 55.8363 42.0378 54.5031C41.4137 53.1698 41.2354 50.859 41.3245 50.237C41.4137 49.615 46.0496 41.1716 43.9991 38.3278C41.9486 35.4839 42.1269 35.4836 40.6113 34.7727C39.0957 34.0619 36.0645 33.4395 34.7272 33.0841C33.39 32.7287 30.0022 30.951 29.3781 30.2401C28.754 29.5292 28.13 28.107 27.2385 28.1071C26.347 28.1072 25.4554 29.9735 25.4554 29.9735C25.4554 29.9735 22.6916 34.9506 22.6025 37.1724C22.5133 39.3941 22.2459 42.0605 22.87 45.26Z" stroke="#0B3D3A" stroke-width="0.8"/>
</svg>
