<svg width="51" height="58" viewBox="0 0 51 58" fill="none" xmlns="http://www.w3.org/2000/svg">
<path d="M4.13076 31.8692C5.37029 42.6111 6.50562 52.3561 6.50562 52.3561C7.75674 55.283 9.08052 56.0513 11.736 57H40.3652C43.2817 56.1872 44.1232 55.0022 45.0449 52.3561C45.0449 52.3561 46.6577 37.0638 48.043 23.6741M4.13076 31.8692C2.64068 18.956 1 4.60224 1 4.00517C1 2.91142 1.82584 0.999241 4.02809 1.00031C6.23034 1.00137 45.3202 0.999241 46.9719 1.00031C48.6236 1.00137 50 2.63826 50 4.00517C50 4.59225 49.086 13.594 48.043 23.6741M4.13076 31.8692C4.13076 31.8692 5.95506 32.9619 11.1854 33.235C16.4157 33.5082 21.3708 30.7765 23.2978 29.4107C25.2247 28.0448 29.3539 24.4936 34.309 23.6741C39.264 22.8546 48.043 23.6741 48.043 23.6741" stroke="#0B3D3A" stroke-width="0.8"/>
</svg>
