<svg width="39" height="58" viewBox="0 0 39 58" fill="none" xmlns="http://www.w3.org/2000/svg">
<path d="M0.339531 21.9255C0.363915 22.1451 0.561675 22.3033 0.781239 22.2789C1.0008 22.2545 1.15903 22.0568 1.13464 21.8372L0.339531 21.9255ZM17.1025 3.61017L12.7364 2.10313L13.6143 6.63774L17.1025 3.61017ZM19.1628 1C19.1628 0.779086 18.9837 0.6 18.7628 0.6C18.5419 0.6 18.3628 0.779086 18.3628 1H19.1628ZM18.3628 57C18.3628 57.2209 18.5419 57.4 18.7628 57.4C18.9837 57.4 19.1628 57.2209 19.1628 57H18.3628ZM10.5165 16.5422C10.3198 16.6429 10.242 16.8839 10.3426 17.0805C10.4433 17.2772 10.6843 17.355 10.8809 17.2544L10.5165 16.5422ZM10.5234 19.3862C10.3248 19.4831 10.2424 19.7225 10.3392 19.9211C10.436 20.1197 10.6755 20.2021 10.8741 20.1053L10.5234 19.3862ZM3.97908 24.4833C3.84349 24.6577 3.87496 24.909 4.04937 25.0446C4.22377 25.1802 4.47508 25.1487 4.61067 24.9743L3.97908 24.4833ZM14.9183 22.5156C15.1375 22.543 15.3374 22.3875 15.3649 22.1683C15.3923 21.9491 15.2368 21.7491 15.0176 21.7217L14.9183 22.5156ZM15.5086 23.0445C15.3646 22.8769 15.1121 22.8577 14.9445 23.0016C14.7769 23.1456 14.7578 23.3981 14.9017 23.5657L15.5086 23.0445ZM16.2298 32.5242C16.2103 32.7443 16.373 32.9384 16.5931 32.9578C16.8131 32.9772 17.0073 32.8145 17.0267 32.5944L16.2298 32.5242ZM6.592 27.9226C6.39015 27.8329 6.15375 27.9238 6.06399 28.1256C5.97423 28.3275 6.06511 28.5639 6.26697 28.6536L6.592 27.9226ZM14.9708 27.6589C15.1475 27.5263 15.1833 27.2756 15.0507 27.0989C14.9181 26.9222 14.6674 26.8864 14.4907 27.019L14.9708 27.6589ZM6.46018 31.4486C6.23992 31.4317 6.04762 31.5965 6.03067 31.8168C6.01372 32.037 6.17853 32.2293 6.39879 32.2463L6.46018 31.4486ZM15.2653 29.5048C15.4131 29.3406 15.3997 29.0877 15.2355 28.9399C15.0712 28.7922 14.8183 28.8055 14.6706 28.9698L15.2653 29.5048ZM14.3574 37.2815C14.4754 37.0947 14.4197 36.8476 14.2329 36.7296C14.0461 36.6116 13.7991 36.6674 13.6811 36.8541L14.3574 37.2815ZM10.5359 48.2145C10.5327 48.4354 10.7091 48.6171 10.93 48.6203C11.1509 48.6235 11.3326 48.4471 11.3359 48.2262L10.5359 48.2145ZM15.135 38.335C14.9175 38.3738 14.7726 38.5815 14.8113 38.799C14.8501 39.0165 15.0578 39.1614 15.2753 39.1226L15.135 38.335ZM13.7821 43.7864C13.5611 43.7864 13.3821 43.9655 13.3821 44.1864C13.3821 44.4074 13.5611 44.5864 13.7821 44.5864V43.7864ZM16.1538 46.6339C15.9329 46.6339 15.7538 46.813 15.7538 47.0339C15.7538 47.2548 15.9329 47.4339 16.1538 47.4339V46.6339ZM0.897464 29.1923C0.872624 28.9728 0.674538 28.815 0.455025 28.8398C0.235512 28.8647 0.0776973 29.0627 0.102536 29.2823L0.897464 29.1923ZM21.808 21.7205C21.5881 21.7415 21.4269 21.9369 21.448 22.1568C21.4691 22.3767 21.6644 22.5379 21.8843 22.5168L21.808 21.7205ZM32.0177 25.029C32.1835 25.175 32.4362 25.159 32.5822 24.9932C32.7282 24.8274 32.7122 24.5746 32.5464 24.4286L32.0177 25.029ZM22.5327 26.7626C22.3454 26.6454 22.0986 26.7022 21.9814 26.8895C21.8642 27.0768 21.9211 27.3236 22.1083 27.4408L22.5327 26.7626ZM30.6238 27.4223C30.8009 27.2902 30.8373 27.0395 30.7052 26.8625C30.5731 26.6854 30.3224 26.649 30.1454 26.7811L30.6238 27.4223ZM20.185 43.7864C19.9641 43.7869 19.7854 43.9664 19.7859 44.1873C19.7864 44.4082 19.9658 44.5869 20.1867 44.5864L20.185 43.7864ZM24.9715 42.8118C25.1297 42.6576 25.1329 42.4044 24.9787 42.2462C24.8245 42.088 24.5713 42.0848 24.4131 42.239L24.9715 42.8118ZM20.1859 46.6339C19.965 46.6339 19.7859 46.813 19.7859 47.0339C19.7859 47.2548 19.965 47.4339 20.1859 47.4339V46.6339ZM21.8462 47.4339C22.0671 47.4339 22.2462 47.2548 22.2462 47.0339C22.2462 46.813 22.0671 46.6339 21.8462 46.6339V47.4339ZM20.7612 38.3527C20.5535 38.428 20.4461 38.6573 20.5213 38.865C20.5966 39.0727 20.826 39.1801 21.0337 39.1049L20.7612 38.3527ZM22.8723 39.0955C23.0748 39.1838 23.3105 39.0911 23.3988 38.8886C23.487 38.686 23.3943 38.4503 23.1918 38.3621L22.8723 39.0955ZM37.8963 29.2917C37.9263 29.0728 37.7732 28.871 37.5544 28.841C37.3355 28.811 37.1337 28.9641 37.1037 29.1829L37.8963 29.2917ZM20.5255 2.98621C20.3119 2.92966 20.093 3.05693 20.0364 3.27048C19.9799 3.48403 20.1071 3.703 20.3207 3.75955L20.5255 2.98621ZM37.2628 24.4915L38.9573 20.1948L34.3889 20.8757L37.2628 24.4915ZM0.737086 21.8814C1.13464 21.8372 1.13466 21.8373 1.13467 21.8375C1.13467 21.8375 1.13468 21.8375 1.13468 21.8376C1.13468 21.8376 1.13467 21.8375 1.13466 21.8373C1.13462 21.837 1.13454 21.8363 1.13442 21.8351C1.13419 21.8329 1.13381 21.8292 1.13329 21.8239C1.13227 21.8134 1.13072 21.7969 1.12885 21.7746C1.12511 21.73 1.12006 21.6622 1.11518 21.5731C1.10543 21.3948 1.0964 21.131 1.1 20.7956C1.10722 20.1245 1.16498 19.1682 1.36798 18.0367C1.77403 15.7734 2.75945 12.8174 5.07648 10.0357L4.76914 9.77966L4.46179 9.52366C2.03524 12.4369 1.00463 15.5317 0.580552 17.8955C0.368485 19.0775 0.307661 20.0789 0.30005 20.787C0.296243 21.1412 0.305745 21.4225 0.316374 21.6168C0.32169 21.714 0.327289 21.7894 0.331654 21.8415C0.333836 21.8675 0.33571 21.8876 0.337086 21.9017C0.337774 21.9087 0.338338 21.9143 0.338753 21.9182C0.33896 21.9202 0.339131 21.9218 0.339262 21.923C0.339327 21.9237 0.339382 21.9242 0.339427 21.9246C0.33945 21.9248 0.339476 21.925 0.339487 21.9251C0.33951 21.9253 0.339531 21.9255 0.737086 21.8814ZM4.76914 9.77966L5.07648 10.0357C7.6573 6.93727 11.1133 5.41676 13.679 4.67876L13.5684 4.29434L13.4579 3.90993C10.8087 4.67196 7.1837 6.25587 4.46179 9.52366L4.76914 9.77966ZM18.7628 1H18.3628V15.4746H18.7628H19.1628V1H18.7628ZM10.6987 16.8983L10.8809 17.2544C12.2909 16.5328 13.4027 16.0958 14.5753 15.8823C15.7484 15.6688 17.0076 15.6744 18.7169 15.8719L18.7628 15.4746L18.8087 15.0772C17.0585 14.8749 15.7126 14.8621 14.432 15.0953C13.151 15.3285 11.9604 15.8033 10.5165 16.5422L10.6987 16.8983ZM18.7628 15.4746H18.3628V18.322H18.7628H19.1628V15.4746H18.7628ZM10.6987 19.7458L10.8741 20.1053C12.3469 19.387 13.4899 18.9455 14.6648 18.7288C15.8376 18.5124 17.0665 18.5155 18.7138 18.719L18.7628 18.322L18.8119 17.9251C17.117 17.7157 15.8002 17.7058 14.5197 17.942C13.2413 18.1779 12.0233 18.6548 10.5234 19.3862L10.6987 19.7458ZM4.29487 24.7288C4.61067 24.9743 4.6106 24.9744 4.61053 24.9745C4.61052 24.9745 4.61046 24.9746 4.61043 24.9746C4.61037 24.9747 4.61034 24.9747 4.61034 24.9747C4.61033 24.9748 4.61042 24.9746 4.61061 24.9744C4.61099 24.9739 4.61176 24.9729 4.61293 24.9715C4.61527 24.9685 4.61919 24.9636 4.62466 24.9569C4.63559 24.9434 4.65274 24.9226 4.67591 24.8954C4.72226 24.8409 4.79264 24.7609 4.88563 24.6626C5.07185 24.4658 5.34742 24.197 5.70107 23.914C6.41143 23.3454 7.41859 22.7336 8.63569 22.5122L8.5641 22.1186L8.49252 21.7251C7.10064 21.9783 5.97319 22.6715 5.20117 23.2894C4.81364 23.5996 4.51109 23.8944 4.30447 24.1128C4.20105 24.2222 4.12134 24.3127 4.06671 24.3769C4.03938 24.409 4.01831 24.4345 4.00365 24.4525C3.99632 24.4616 3.9906 24.4687 3.98649 24.4739C3.98444 24.4765 3.9828 24.4786 3.98156 24.4801C3.98094 24.4809 3.98043 24.4816 3.98001 24.4821C3.9798 24.4824 3.97962 24.4826 3.97947 24.4828C3.97939 24.4829 3.97929 24.483 3.97925 24.4831C3.97916 24.4832 3.97908 24.4833 4.29487 24.7288ZM8.5641 22.1186L8.63569 22.5122C9.89446 22.2832 11.4588 22.2813 12.7258 22.3402C13.3557 22.3696 13.9052 22.4135 14.297 22.4502C14.4928 22.4685 14.649 22.4849 14.7558 22.4967C14.8092 22.5027 14.8503 22.5074 14.8777 22.5107C14.8915 22.5123 14.9019 22.5135 14.9087 22.5144C14.9121 22.5148 14.9146 22.5151 14.9162 22.5153C14.917 22.5154 14.9176 22.5155 14.9179 22.5155C14.9181 22.5155 14.9182 22.5155 14.9183 22.5156C14.9183 22.5156 14.9183 22.5156 14.9184 22.5156C14.9183 22.5156 14.9183 22.5156 14.9679 22.1186C15.0176 21.7217 15.0175 21.7217 15.0175 21.7217C15.0174 21.7217 15.0173 21.7217 15.0173 21.7217C15.0171 21.7217 15.0169 21.7216 15.0166 21.7216C15.016 21.7215 15.0152 21.7214 15.0142 21.7213C15.0121 21.7211 15.0092 21.7207 15.0053 21.7202C14.9976 21.7193 14.9863 21.7179 14.9716 21.7162C14.9423 21.7127 14.8993 21.7077 14.8438 21.7016C14.7329 21.6893 14.5722 21.6724 14.3715 21.6536C13.9702 21.6161 13.4079 21.5711 12.763 21.5411C11.4803 21.4814 9.84272 21.4795 8.49252 21.7251L8.5641 22.1186ZM15.2051 23.3051L14.9017 23.5657C16.6387 25.588 16.6456 27.807 16.2298 32.5242L16.6282 32.5593L17.0267 32.5944C17.4377 27.932 17.4969 25.3593 15.5086 23.0445L15.2051 23.3051ZM6.42949 28.2881C6.26697 28.6536 6.26706 28.6537 6.26716 28.6537C6.2672 28.6537 6.26731 28.6538 6.2674 28.6538C6.26758 28.6539 6.26778 28.654 6.26803 28.6541C6.26851 28.6543 6.26912 28.6546 6.26986 28.6549C6.27135 28.6556 6.27335 28.6564 6.27586 28.6575C6.28089 28.6597 6.28795 28.6628 6.29699 28.6666C6.31506 28.6744 6.34104 28.6853 6.3744 28.6989C6.4411 28.7261 6.53742 28.764 6.65914 28.8085C6.90237 28.8973 7.24832 29.0126 7.66319 29.1202C8.48811 29.3342 9.6083 29.5237 10.7429 29.3976L10.6987 29L10.6545 28.6024C9.65452 28.7136 8.6401 28.5472 7.86405 28.3459C7.47844 28.2458 7.15733 28.1387 6.93361 28.057C6.82186 28.0162 6.73473 27.9818 6.67636 27.958C6.64718 27.9461 6.62521 27.9369 6.61097 27.9308C6.60385 27.9278 6.59867 27.9256 6.59549 27.9242C6.5939 27.9235 6.5928 27.923 6.59222 27.9227C6.59193 27.9226 6.59176 27.9225 6.59173 27.9225C6.59171 27.9225 6.59172 27.9225 6.59177 27.9225C6.59179 27.9225 6.59185 27.9226 6.59186 27.9226C6.59193 27.9226 6.592 27.9226 6.42949 28.2881ZM10.6987 29L10.7429 29.3976C11.8788 29.2713 12.9365 28.8325 13.6998 28.4354C14.0838 28.2356 14.3989 28.0434 14.6188 27.9006C14.7289 27.8291 14.8154 27.7698 14.8751 27.7279C14.9049 27.7069 14.9281 27.6902 14.9442 27.6785C14.9522 27.6727 14.9585 27.6681 14.963 27.6648C14.9652 27.6631 14.967 27.6618 14.9683 27.6608C14.9689 27.6603 14.9695 27.6599 14.9699 27.6596C14.9701 27.6595 14.9703 27.6593 14.9705 27.6592C14.9705 27.6592 14.9706 27.6591 14.9707 27.6591C14.9708 27.659 14.9708 27.6589 14.7308 27.339C14.4907 27.019 14.4908 27.019 14.4908 27.0189C14.4908 27.0189 14.4909 27.0189 14.4909 27.0189C14.4909 27.0189 14.4909 27.0188 14.4909 27.0189C14.4909 27.0189 14.4907 27.019 14.4905 27.0192C14.49 27.0196 14.489 27.0203 14.4875 27.0214C14.4847 27.0235 14.48 27.0269 14.4737 27.0315C14.4609 27.0408 14.4413 27.055 14.4151 27.0734C14.3627 27.1102 14.2843 27.164 14.1831 27.2297C13.9805 27.3612 13.6878 27.5398 13.3306 27.7257C12.6116 28.0997 11.6533 28.4914 10.6545 28.6024L10.6987 29ZM6.42949 31.8475C6.39879 32.2463 6.39883 32.2463 6.39888 32.2463C6.39891 32.2463 6.39897 32.2463 6.39903 32.2463C6.39915 32.2463 6.39932 32.2463 6.39954 32.2463C6.39998 32.2464 6.4006 32.2464 6.40141 32.2465C6.40302 32.2466 6.40537 32.2468 6.40844 32.247C6.41458 32.2475 6.4236 32.2481 6.43537 32.249C6.45889 32.2507 6.49339 32.2532 6.53776 32.2562C6.62648 32.2624 6.75474 32.2708 6.9137 32.2801C7.23147 32.2988 7.67269 32.3213 8.16656 32.3363C9.14573 32.3659 10.3621 32.3674 11.2297 32.2434L11.1731 31.8475L11.1165 31.4515C10.3237 31.5648 9.16838 31.5663 8.19081 31.5366C7.70632 31.5219 7.27293 31.4999 6.9607 31.4815C6.80465 31.4723 6.67905 31.4641 6.59268 31.4581C6.54949 31.4552 6.51613 31.4528 6.49367 31.4511C6.48245 31.4503 6.47395 31.4497 6.46832 31.4493C6.46551 31.449 6.46341 31.4489 6.46205 31.4488C6.46137 31.4487 6.46087 31.4487 6.46056 31.4487C6.4604 31.4487 6.46029 31.4486 6.46023 31.4486C6.4602 31.4486 6.46019 31.4486 6.46017 31.4486C6.46017 31.4486 6.46018 31.4486 6.42949 31.8475ZM11.1731 31.8475L11.2297 32.2434C11.7183 32.1736 12.2149 31.9523 12.6697 31.684C13.1287 31.4132 13.5696 31.0796 13.9505 30.7596C14.3322 30.4388 14.6596 30.1265 14.8914 29.8945C15.0075 29.7784 15.1001 29.682 15.164 29.6141C15.196 29.5802 15.2209 29.5534 15.238 29.5348C15.2465 29.5255 15.2531 29.5183 15.2577 29.5132C15.26 29.5107 15.2618 29.5087 15.2631 29.5073C15.2637 29.5066 15.2642 29.5061 15.2646 29.5056C15.2648 29.5054 15.2649 29.5052 15.2651 29.5051C15.2651 29.505 15.2652 29.505 15.2652 29.5049C15.2653 29.5049 15.2653 29.5048 14.9679 29.2373C14.6706 28.9698 14.6706 28.9697 14.6706 28.9697C14.6706 28.9697 14.6707 28.9697 14.6706 28.9697C14.6706 28.9697 14.6706 28.9697 14.6705 28.9698C14.6704 28.97 14.6701 28.9703 14.6697 28.9707C14.6689 28.9716 14.6676 28.973 14.6658 28.975C14.6623 28.9789 14.6567 28.9851 14.6492 28.9932C14.6342 29.0095 14.6116 29.0339 14.5819 29.0653C14.5227 29.1282 14.4355 29.219 14.3256 29.329C14.1053 29.5494 13.7952 29.8451 13.4358 30.1472C13.0754 30.45 12.6714 30.7541 12.2632 30.995C11.8508 31.2383 11.458 31.4027 11.1165 31.4515L11.1731 31.8475ZM14.0192 37.0678L13.6811 36.8541C12.3828 38.9089 11.608 40.586 11.1531 42.3431C10.6994 44.0958 10.5698 45.9068 10.5359 48.2145L10.9359 48.2203L11.3359 48.2262C11.3695 45.9361 11.4982 44.202 11.9276 42.5436C12.3558 40.8894 13.0888 39.2892 14.3574 37.2815L14.0192 37.0678ZM18.7628 18.322H18.3628V39.4407H18.7628H19.1628V18.322H18.7628ZM15.2051 38.7288L15.2753 39.1226C15.9592 39.0008 16.4408 38.9497 16.9111 39.0264C17.3748 39.102 17.8641 39.3087 18.5364 39.7704L18.7628 39.4407L18.9893 39.1109C18.2599 38.6101 17.6598 38.338 17.0399 38.2369C16.4264 38.1368 15.8301 38.2112 15.135 38.335L15.2051 38.7288ZM18.7628 39.4407H18.3628V44.1864H18.7628H19.1628V39.4407H18.7628ZM13.7821 44.1864V44.5864H18.7628V44.1864V43.7864H13.7821V44.1864ZM18.7628 44.1864H18.3628V47.0339H18.7628H19.1628V44.1864H18.7628ZM16.1538 47.0339V47.4339H18.7628V47.0339V46.6339H16.1538V47.0339ZM0.5 29.2373C0.102536 29.2823 0.102549 29.2824 0.102566 29.2825C0.102579 29.2826 0.102602 29.2828 0.102628 29.2831C0.102681 29.2835 0.102755 29.2842 0.102851 29.285C0.103044 29.2867 0.103324 29.2892 0.103693 29.2923C0.104431 29.2987 0.105524 29.3081 0.106978 29.3204C0.109885 29.3451 0.114236 29.3814 0.120082 29.4289C0.131773 29.5238 0.149445 29.6632 0.173505 29.8425C0.221621 30.2009 0.295302 30.7188 0.397809 31.3583C0.602765 32.6371 0.923259 34.4044 1.38558 36.359C2.30612 40.2508 3.80324 44.9499 6.11097 47.9877L6.42949 47.7458L6.74801 47.5038C4.54932 44.6095 3.0817 40.0543 2.1641 36.1749C1.70735 34.2439 1.39042 32.4964 1.18773 31.2317C1.08641 30.5996 1.01371 30.0885 0.966394 29.736C0.94274 29.5598 0.925437 29.4233 0.914082 29.3311C0.908405 29.285 0.904215 29.25 0.901462 29.2267C0.900086 29.215 0.899068 29.2063 0.898404 29.2005C0.898072 29.1976 0.897828 29.1955 0.897671 29.1941C0.897593 29.1935 0.897537 29.193 0.897502 29.1927C0.897485 29.1925 0.897475 29.1924 0.897467 29.1923C0.897462 29.1923 0.897464 29.1923 0.5 29.2373ZM18.7628 47.0339H18.3628V54.3898H18.7628H19.1628V47.0339H18.7628ZM18.7628 54.3898H18.3628V57H18.7628H19.1628V54.3898H18.7628ZM6.42949 47.7458L6.11097 47.9877C8.42675 51.0362 11.587 52.7334 14.149 53.6681C15.432 54.1363 16.5716 54.4157 17.3917 54.5783C17.8019 54.6596 18.1328 54.7118 18.3625 54.7438C18.4773 54.7598 18.5669 54.7708 18.6285 54.7778C18.6593 54.7813 18.6831 54.7839 18.6996 54.7855C18.7078 54.7864 18.7142 54.787 18.7187 54.7874C18.721 54.7877 18.7227 54.7878 18.7241 54.788C18.7247 54.788 18.7253 54.7881 18.7257 54.7881C18.7259 54.7881 18.7261 54.7881 18.7262 54.7882C18.7264 54.7882 18.7266 54.7882 18.7628 54.3898C18.7991 53.9915 18.7992 53.9915 18.7992 53.9915C18.7992 53.9915 18.7993 53.9915 18.7992 53.9915C18.7992 53.9915 18.799 53.9915 18.7987 53.9914C18.7981 53.9914 18.7971 53.9913 18.7956 53.9911C18.7925 53.9908 18.7876 53.9904 18.7809 53.9897C18.7675 53.9883 18.7468 53.9861 18.7191 53.983C18.6639 53.9767 18.5809 53.9665 18.4729 53.9515C18.2569 53.9214 17.9412 53.8716 17.5472 53.7935C16.759 53.6373 15.6602 53.368 14.4232 52.9166C11.9451 52.0124 8.93863 50.3875 6.74801 47.5038L6.42949 47.7458ZM21.8462 22.1186L21.8843 22.5168C24.247 22.2903 25.9882 22.2334 27.533 22.5701C29.0621 22.9033 30.4287 23.6297 32.0177 25.029L32.2821 24.7288L32.5464 24.4286C30.8818 22.9627 29.3961 22.1573 27.7034 21.7884C26.0265 21.4229 24.1765 21.4934 21.808 21.7205L21.8462 22.1186ZM22.3205 27.1017L22.1083 27.4408C23.7289 28.4549 25.0569 29.0794 26.4012 29.1163C27.7613 29.1536 29.0598 28.5894 30.6238 27.4223L30.3846 27.1017L30.1454 26.7811C28.6434 27.9019 27.5224 28.3467 26.4231 28.3166C25.3082 28.286 24.1371 27.7666 22.5327 26.7626L22.3205 27.1017ZM20.1859 44.1864L20.1867 44.5864C21.2413 44.5842 22.0723 44.5103 22.8283 44.2433C23.5917 43.9738 24.2456 43.5195 24.9715 42.8118L24.6923 42.5254L24.4131 42.239C23.7388 42.8964 23.181 43.2704 22.5619 43.489C21.9354 43.7102 21.2134 43.7843 20.185 43.7864L20.1859 44.1864ZM20.1859 47.0339V47.4339H21.8462V47.0339V46.6339H20.1859V47.0339ZM20.8974 38.7288L21.0337 39.1049C21.4416 38.9571 21.7163 38.8854 21.9739 38.8793C22.2232 38.8734 22.4894 38.9287 22.8723 39.0955L23.0321 38.7288L23.1918 38.3621C22.7407 38.1656 22.3563 38.07 21.955 38.0795C21.5621 38.0888 21.1865 38.1987 20.7612 38.3527L20.8974 38.7288ZM18.7628 54.3898C18.7739 54.7897 18.7741 54.7897 18.7743 54.7897C18.7744 54.7897 18.7747 54.7897 18.7749 54.7896C18.7754 54.7896 18.7759 54.7896 18.7766 54.7896C18.7781 54.7896 18.78 54.7895 18.7825 54.7894C18.7874 54.7892 18.7943 54.789 18.8033 54.7886C18.8212 54.7879 18.847 54.7868 18.8805 54.7851C18.9474 54.7816 19.0448 54.7757 19.1694 54.7659C19.4185 54.7463 19.777 54.7112 20.2195 54.6487C21.1041 54.5239 22.3279 54.2896 23.6884 53.851C26.4047 52.9754 29.7003 51.2737 31.9034 47.9676L31.5705 47.7458L31.2376 47.524C29.1715 50.6246 26.0633 52.2449 23.443 53.0896C22.1352 53.5112 20.9576 53.7367 20.1078 53.8566C19.6832 53.9165 19.3412 53.9499 19.1067 53.9683C18.9895 53.9776 18.8992 53.983 18.839 53.9861C18.8089 53.9877 18.7863 53.9887 18.7716 53.9893C18.7643 53.9896 18.7589 53.9897 18.7556 53.9899C18.7539 53.9899 18.7528 53.99 18.7521 53.99C18.7518 53.99 18.7516 53.99 18.7515 53.99C18.7515 53.99 18.7515 53.99 18.7515 53.99C18.7516 53.99 18.7517 53.99 18.7628 54.3898ZM31.5705 47.7458L31.9034 47.9676C34.0784 44.7035 35.5738 40.0195 36.5245 36.1852C37.0014 34.2618 37.344 32.5402 37.5675 31.2992C37.6793 30.6785 37.7614 30.1778 37.8155 29.8316C37.8426 29.6586 37.8627 29.5241 37.8761 29.4327C37.8828 29.387 37.8878 29.352 37.8912 29.3283C37.8928 29.3165 37.8941 29.3074 37.895 29.3013C37.8954 29.2982 37.8957 29.2959 37.8959 29.2943C37.896 29.2935 37.8961 29.2929 37.8962 29.2924C37.8962 29.2922 37.8962 29.292 37.8963 29.2919C37.8963 29.2918 37.8963 29.2917 37.5 29.2373C37.1037 29.1829 37.1037 29.1829 37.1037 29.183C37.1037 29.183 37.1037 29.1831 37.1037 29.1833C37.1036 29.1836 37.1036 29.184 37.1035 29.1847C37.1033 29.186 37.103 29.1881 37.1026 29.1909C37.1018 29.1964 37.1007 29.2048 37.0991 29.2161C37.0959 29.2386 37.091 29.2724 37.0845 29.3168C37.0715 29.4058 37.0518 29.5376 37.0251 29.708C36.9718 30.0487 36.8908 30.5434 36.7802 31.1574C36.559 32.3857 36.2198 34.0899 35.748 35.9927C34.8012 39.8111 33.3319 44.3812 31.2376 47.524L31.5705 47.7458ZM20.4231 3.37288C20.3207 3.75955 20.3206 3.75954 20.3206 3.75954C20.3207 3.75955 20.3207 3.75956 20.3208 3.75958C20.321 3.75963 20.3212 3.7597 20.3217 3.75981C20.3225 3.76003 20.3238 3.76038 20.3255 3.76085C20.3291 3.7618 20.3346 3.76327 20.3419 3.76526C20.3566 3.76923 20.3788 3.77527 20.4081 3.78336C20.4666 3.79953 20.5536 3.82391 20.666 3.85636C20.8908 3.92128 21.2172 4.01848 21.6211 4.14704C22.4291 4.40427 23.5458 4.78647 24.7794 5.28601C27.2598 6.29048 30.1613 7.74919 31.9991 9.58786L32.2821 9.30508L32.565 9.02231C30.6079 7.06437 27.5799 5.55698 25.0796 4.5445C23.8228 4.03556 22.6863 3.64658 21.8637 3.38474C21.4523 3.25376 21.119 3.15447 20.888 3.08776C20.7724 3.0544 20.6825 3.02919 20.6211 3.01223C20.5903 3.00375 20.5668 2.99733 20.5507 2.99299C20.5427 2.99082 20.5365 2.98917 20.5323 2.98804C20.5302 2.98747 20.5286 2.98704 20.5274 2.98673C20.5269 2.98658 20.5264 2.98646 20.5261 2.98637C20.5259 2.98633 20.5258 2.98629 20.5257 2.98627C20.5256 2.98624 20.5255 2.98621 20.4231 3.37288ZM32.2821 9.30508L31.9991 9.58786C33.1438 10.7331 34.0661 12.6475 34.7877 14.7779C35.5052 16.8958 36.0073 19.1745 36.3384 21.0015L36.732 20.9301L37.1256 20.8588C36.7909 19.0118 36.2804 16.6908 35.5454 14.5212C34.8147 12.364 33.8449 10.3028 32.565 9.02231L32.2821 9.30508Z" fill="#0B3D3A"/>
</svg>
