<svg width="59" height="58" viewBox="0 0 59 58" fill="none" xmlns="http://www.w3.org/2000/svg">
<path d="M17.456 35.1695C17.456 35.1695 16.0034 33.2424 15.0111 30.1864M17.456 35.1695C17.456 35.1695 11.9707 34.6949 11.7322 33.0339C11.4937 31.3729 15.0111 30.1864 15.0111 30.1864M17.456 35.1695C26.685 36.1398 31.8943 36.2954 41.3054 35.1695M41.3054 35.1695C41.3054 35.1695 42.6612 33.2424 43.5832 30.1864M41.3054 35.1695C41.3054 35.1695 46.3138 34.6949 47.2678 33.0339C48.2218 31.3729 43.5832 30.1864 43.5832 30.1864M15.0111 30.1864C14.4463 28.4467 14.0306 26.3411 14.1171 24.0169C14.1659 22.7064 14.7735 20.9689 15.7216 19.0339M43.5832 30.1864C44.1081 28.4467 44.4923 26.3411 44.4058 24.0169C44.357 22.7064 43.7594 20.9689 42.8272 19.0339M17.456 24.9661C17.2776 29.0897 17.7107 31.1129 19.841 33.9831M40.8285 21.6441C42.463 27.2523 41.6205 29.8332 38.682 33.9831M37.4895 15.7119C35.8898 12.8128 34.8643 11.2348 32.4812 8.59322M19.1255 29.2373C19.1255 29.2373 22.2259 28.0508 29.3807 28.0508C36.5356 28.0508 39.159 29.2373 39.159 29.2373M1 40.3898H58M1 19.0339H15.7216M15.7216 19.0339C19.4083 11.5097 28.2425 1 29.3807 1C30.519 1 39.2023 11.5097 42.8272 19.0339M18.1715 19.0339H40.59M42.8272 19.0339H58M11.9707 41.8136V47.2712H8.87029L14.1171 54.3898L19.841 47.2712H16.2636V41.8136M27.2343 41.8136V49.8814H23.8954L29.3807 57L35.1046 49.8814H31.5272V41.8136M42.3502 41.8136V47.2712H39.2498L44.4966 54.3898L50.2205 47.2712H46.6431V41.8136" stroke="#0B3D3A" stroke-linecap="round"/>
</svg>
