<svg width="65" height="58" viewBox="0 0 65 58" fill="none" xmlns="http://www.w3.org/2000/svg">
<path d="M18.5628 23.1111L12.1254 11.9557L18.434 1.02344H31.4965L37.8051 11.9557M37.8051 11.9557L31.3678 23.1111M37.8051 11.9557H50.6742L57.1116 23.1111L50.6742 34.2665H38.4094M0.5 50.1071H25.6986L32.3885 57.0234L39.3014 50.1071H64.5M2.72997 53.4537H7.85889M10.0889 53.4537H15.6638M17.8937 53.4537H23.2456M42.4233 53.6768H47.5523M49.7822 53.6768H55.3571M57.5871 53.6768H62.939M12.9879 34.2665L18.9104 24.0035H30.8276L36.75 34.2665L30.8276 44.7525H18.9104L12.9879 34.2665Z" stroke="#0B3D3A" stroke-width="0.8" stroke-linecap="round"/>
</svg>
