<svg width="48" height="58" viewBox="0 0 48 58" fill="none" xmlns="http://www.w3.org/2000/svg">
<path d="M39.4124 1C39.4124 1 39.8866 4.76471 39.8866 6.88235C39.8866 9 38.701 11.8235 39.4124 13.9412C40.1237 16.0588 47 22.6471 47 23.8235C47 25 43.2062 26.4118 43.2062 27.5882C43.2062 28.7647 45.8144 30.6471 45.8144 31.3529C45.8144 32.0588 43.2062 33.2353 43.2062 33.9412C43.2062 34.6471 44.866 35.1176 44.866 35.8235C44.866 36.5294 43.2062 37.9412 43.2062 38.8824C43.2062 39.8235 44.1546 45.2353 43.2062 47.5882C42.2577 49.9412 39.1753 49.9412 38.2268 49.9412C37.2784 49.9412 30.1649 49 27.7938 49.9412C25.4227 50.8824 21.866 57 21.866 57M33.4845 11.1176C35.3253 12.4136 35.6893 13.6683 35.8557 16.2941M27.5567 16.0588C27.5567 16.0588 31.8247 16.5294 33.2474 16.5294C34.6701 16.5294 37.7526 16.0588 37.7526 16.0588M14.9897 26.6471C14.9897 26.6471 12.6186 34.4118 11.433 36.7647C10.2474 39.1176 1 40.7647 1 40.7647C1 40.7647 10.0103 42.6471 11.433 44.5294C12.8557 46.4118 14.9897 54.4118 14.9897 54.4118C14.9897 54.4118 17.3608 46.8824 19.0206 44.5294C20.6804 42.1765 28.9794 40.7647 28.9794 40.7647C28.9794 40.7647 19.4948 37.9412 18.0722 36.2941C16.6495 34.6471 14.9897 26.8824 14.9897 26.8824M29.4536 20.5294C29.4536 20.5294 28.0309 25.7059 26.6082 26.8824C25.1856 28.0588 21.1546 28.2941 21.1546 28.2941C21.1546 28.2941 25.4227 29 26.6082 30.1765C27.7938 31.3529 29.4536 36.2941 29.4536 36.2941C29.4536 36.2941 31.1134 30.8824 32.0619 30.1765C33.0103 29.4706 37.5155 28.2941 37.5155 28.2941C37.5155 28.2941 32.0619 27.5882 31.3505 26.8824C30.6392 26.1765 29.4536 20.5294 29.4536 20.5294ZM11.433 4.05882C11.433 4.05882 10.0103 9.23529 8.58763 10.4118C7.16495 11.5882 3.13402 11.8235 3.13402 11.8235C3.13402 11.8235 7.40206 12.5294 8.58763 13.7059C9.7732 14.8824 11.433 19.8235 11.433 19.8235C11.433 19.8235 13.0928 14.4118 14.0412 13.7059C14.9897 13 19.4948 11.8235 19.4948 11.8235C19.4948 11.8235 14.0412 11.1176 13.3299 10.4118C12.6186 9.70588 11.433 4.05882 11.433 4.05882Z" stroke="#0B3D3A" stroke-width="0.8" stroke-linecap="round"/>
</svg>
