<svg width="57" height="56" viewBox="0 0 57 56" fill="none" xmlns="http://www.w3.org/2000/svg">
<path d="M28.5432 0V11.0435M36.8395 13.3913L42.3279 3.82609M45.2222 28.087H56.3704M42.9753 36.6087L52.4815 42.1312M36.8395 42.5217L42.3704 52.161M28.5432 44.7826V56M19.9012 42.5217L14.3704 52.161M11.6914 28.087H0.629639M13.8519 19.6522L4.43211 14.1799M19.9012 13.3913L14.4129 3.82609M45.2222 19.6522L53.5002 14.8729M11.6914 36.6087L2.80006 45.5M41.7654 27.913C41.7654 35.3569 35.7683 41.3913 28.3704 41.3913C20.9725 41.3913 14.9753 35.3569 14.9753 27.913C14.9753 20.4692 20.9725 14.4348 28.3704 14.4348C35.7683 14.4348 41.7654 20.4692 41.7654 27.913Z" stroke="#FFFEF5" stroke-width="0.8"/>
</svg>
