<svg width="28" height="58" viewBox="0 0 28 58" fill="none" xmlns="http://www.w3.org/2000/svg">
<path d="M1 18.4752C1 10.8635 1 4.97163 1 4.97163C1.23641 2.57508 1.84942 1.58577 4.54545 1H23.8485C26.0207 1.70861 26.7614 2.62894 27 4.97163V18.4752M1 18.4752C1 19.8815 1 21.3465 1 22.844M1 18.4752H10.0606M27 18.4752V22.844M27 18.4752H17.5455M1 22.844C1 35.4115 1 50.2609 1 51.8369C1 54.617 2.9697 57 4.54545 57C6.12121 57 23.8485 57 23.8485 57C25.9475 55.9569 26.7324 54.9335 27 51.8369V22.844M1 22.844H27M10.0606 18.4752C10.0606 18.4752 10.0606 13.3121 10.4545 12.9149C10.8485 12.5177 12.0303 12.1206 12.4242 11.7234C12.8182 11.3262 12.0303 10.9291 12.4242 9.73759C12.8182 8.5461 14 8.5461 14 8.5461H19.9091M10.0606 18.4752H17.5455M17.5455 18.4752C17.7555 14.36 17.3879 12.6589 14.7879 12.1206M14 33.9645V29.9929M14 44.2908V47.8652M10.4545 43.0993L8.09091 45.4823M17.5455 43.0993L19.9091 45.4823M19.1212 39.1277H22.2727M8.87879 39.1277H5.33333M10.4545 35.5532L8.09091 33.1702M17.5455 35.5532L19.9091 33.1702M17.5455 39.1277C17.5455 41.1018 15.9581 42.7021 14 42.7021C12.0419 42.7021 10.4545 41.1018 10.4545 39.1277C10.4545 37.1535 12.0419 35.5532 14 35.5532C15.9581 35.5532 17.5455 37.1535 17.5455 39.1277Z" stroke="#FFFEF5" stroke-width="0.8"/>
</svg>
