<svg width="65" height="56" viewBox="0 0 65 56" fill="none" xmlns="http://www.w3.org/2000/svg">
<path d="M33.5802 0V11.0435M41.8765 13.3913L47.3649 3.82609M50.2593 28.087H61.4074M48.0123 36.6087L57.5185 42.1312M41.8765 42.5217L47.4074 52.161M33.5802 44.7826V56M24.9383 42.5217L19.4074 52.161M16.7284 28.087H5.66667M18.8889 19.6522L9.46914 14.1799M24.9383 13.3913L19.4499 3.82609M1 46.7826L64 10.087M46.8025 27.913C46.8025 35.3569 40.8053 41.3913 33.4074 41.3913C26.0095 41.3913 20.0123 35.3569 20.0123 27.913C20.0123 20.4692 26.0095 14.4348 33.4074 14.4348C40.8053 14.4348 46.8025 20.4692 46.8025 27.913Z" stroke="#0B3D3A" stroke-width="0.8"/>
</svg>
