<svg width="81" height="58" viewBox="0 0 81 58" fill="none" xmlns="http://www.w3.org/2000/svg">
<path d="M0.934891 24.2129V17.514C1.4781 15.6754 2.14739 14.9644 4.73694 14.9132H28.579C28.579 14.9132 31.4305 14.9132 33.2523 16.647C35.0742 18.3809 35.5494 20.9818 35.5494 20.9818V27.3656C35.5494 27.3656 35.787 31.0699 39.9851 31.2275C44.1832 31.3851 45.4506 28.1535 45.4506 27.3656C45.4506 26.5778 45.4506 20.9818 45.4506 20.9818C45.4506 20.1151 46.0843 18.6174 47.8269 16.647C49.5695 14.6767 52.8171 14.9132 52.8171 14.9132H77.372C79.1253 15.2465 79.7019 15.7895 80.0651 17.514V24.2129M0.934891 24.2129C0.934891 24.2129 2.6775 24.0553 3.70722 24.6069C4.73694 25.1586 6.79639 28.1535 10.44 28.1535C14.0837 28.1535 15.351 24.2129 19.7075 24.2129C24.064 24.2129 28.975 28.1535 28.975 28.1535M0.934891 24.2129V37.5323M51.8665 28.1535C51.8665 28.1535 55.6686 24.2129 59.7875 24.2129C63.9064 24.2129 65.8866 28.1535 70.4808 28.1535C75.0749 28.1535 80.0651 24.2129 80.0651 24.2129M80.0651 24.2129V37.5323M0.934891 37.5323V53.9257C1.35762 55.9155 1.9786 56.7483 4.73694 56.9994H77.372C79.1152 56.4006 79.8319 55.8382 80.0651 53.9257V37.5323M0.934891 37.5323H80.0651M6.71718 48.0933H74.2828M43.5435 25.9561C43.5435 27.6369 42.1809 28.9995 40.5 28.9995C38.8191 28.9995 37.4565 27.6369 37.4565 25.9561C37.4565 24.2752 38.8191 22.9126 40.5 22.9126C42.1809 22.9126 43.5435 24.2752 43.5435 25.9561Z" stroke="#0B3D3A" stroke-width="0.8"/>
<path d="M26.9683 7.93016C26.7614 8.00772 26.6566 8.23829 26.7342 8.44514L27.9982 11.8159C28.0758 12.0228 28.3064 12.1276 28.5132 12.05C28.7201 11.9724 28.8249 11.7419 28.7473 11.535L27.6237 8.53877L30.62 7.41517C30.8268 7.33761 30.9316 7.10704 30.8541 6.90019C30.7765 6.69335 30.5459 6.58854 30.3391 6.66611L26.9683 7.93016ZM38.6739 21.0873C39.062 20.9902 39.062 20.9902 39.0619 20.9901C39.0619 20.99 39.0619 20.9899 39.0619 20.9898C39.0618 20.9896 39.0618 20.9894 39.0617 20.989C39.0615 20.9883 39.0612 20.9873 39.0609 20.986C39.0603 20.9834 39.0593 20.9796 39.0581 20.9747C39.0556 20.965 39.0519 20.9506 39.0471 20.932C39.0375 20.8947 39.0232 20.8401 39.0045 20.77C38.967 20.6298 38.9116 20.4275 38.8395 20.1775C38.6953 19.6776 38.4838 18.9855 38.2145 18.216C37.68 16.6888 36.9028 14.8127 35.9504 13.5429L35.6304 13.7829L35.3104 14.0229C36.1842 15.1879 36.9287 16.964 37.4594 18.4803C37.7227 19.2325 37.9297 19.91 38.0708 20.3992C38.1414 20.6437 38.1954 20.8409 38.2316 20.9765C38.2497 21.0444 38.2634 21.0968 38.2725 21.132C38.277 21.1496 38.2804 21.1629 38.2827 21.1717C38.2838 21.1761 38.2846 21.1794 38.2852 21.1815C38.2854 21.1825 38.2856 21.1833 38.2857 21.1837C38.2858 21.184 38.2858 21.1841 38.2859 21.1842C38.2859 21.1843 38.2859 21.1843 38.2859 21.1843C38.2859 21.1843 38.2859 21.1843 38.6739 21.0873ZM35.6304 13.7829L35.9504 13.5429C35.4558 12.8834 34.6537 12.2078 33.7601 11.5736C32.8597 10.9346 31.8382 10.3182 30.8803 9.78177C29.9214 9.2448 29.0208 8.78497 28.3603 8.45947C28.0298 8.29664 27.759 8.16723 27.5705 8.07839C27.4763 8.03397 27.4026 7.99968 27.3523 7.97641C27.3271 7.96477 27.3078 7.95589 27.2947 7.94987C27.2881 7.94687 27.2831 7.94458 27.2797 7.94302C27.278 7.94224 27.2767 7.94164 27.2758 7.94123C27.2753 7.94102 27.275 7.94086 27.2747 7.94074C27.2746 7.94069 27.2745 7.94064 27.2744 7.94061C27.2743 7.94057 27.2743 7.94054 27.1087 8.30469C26.9432 8.66883 26.9432 8.66883 26.9432 8.66884C26.9433 8.66885 26.9433 8.66887 26.9434 8.66891C26.9435 8.66898 26.9438 8.6691 26.9441 8.66926C26.9449 8.66959 26.946 8.6701 26.9475 8.67079C26.9505 8.67217 26.9552 8.67428 26.9613 8.67711C26.9736 8.68276 26.9921 8.69127 27.0165 8.70252C27.0651 8.72502 27.1371 8.75849 27.2295 8.80204C27.4143 8.88915 27.6809 9.01654 28.0067 9.17708C28.6586 9.49832 29.5461 9.95152 30.4894 10.4798C31.4336 11.0085 32.4284 11.6095 33.2971 12.226C34.1724 12.8472 34.8921 13.4651 35.3104 14.0229L35.6304 13.7829Z" fill="#0B3D3A"/>
<path d="M54.0317 7.93016C54.2386 8.00772 54.3434 8.23829 54.2658 8.44514L53.0018 11.8159C52.9242 12.0228 52.6936 12.1276 52.4868 12.05C52.2799 11.9724 52.1751 11.7419 52.2527 11.535L53.3763 8.53877L50.38 7.41517C50.1732 7.33761 50.0684 7.10704 50.1459 6.90019C50.2235 6.69335 50.4541 6.58854 50.6609 6.66611L54.0317 7.93016ZM42.3261 21.0873C41.938 20.9902 41.938 20.9902 41.9381 20.9901C41.9381 20.99 41.9381 20.9899 41.9381 20.9898C41.9382 20.9896 41.9382 20.9894 41.9383 20.989C41.9385 20.9883 41.9388 20.9873 41.9391 20.986C41.9397 20.9834 41.9407 20.9796 41.9419 20.9747C41.9444 20.965 41.9481 20.9506 41.9529 20.932C41.9625 20.8947 41.9768 20.8401 41.9955 20.77C42.033 20.6298 42.0884 20.4275 42.1605 20.1775C42.3047 19.6776 42.5162 18.9855 42.7855 18.216C43.32 16.6888 44.0972 14.8127 45.0496 13.5429L45.3696 13.7829L45.6896 14.0229C44.8158 15.1879 44.0713 16.964 43.5406 18.4803C43.2773 19.2325 43.0703 19.91 42.9292 20.3992C42.8586 20.6437 42.8046 20.8409 42.7684 20.9765C42.7503 21.0444 42.7366 21.0968 42.7275 21.132C42.723 21.1496 42.7196 21.1629 42.7173 21.1717C42.7162 21.1761 42.7154 21.1794 42.7148 21.1815C42.7146 21.1825 42.7144 21.1833 42.7143 21.1837C42.7142 21.184 42.7142 21.1841 42.7141 21.1842C42.7141 21.1843 42.7141 21.1843 42.7141 21.1843C42.7141 21.1843 42.7141 21.1843 42.3261 21.0873ZM45.3696 13.7829L45.0496 13.5429C45.5442 12.8834 46.3463 12.2078 47.2399 11.5736C48.1403 10.9346 49.1618 10.3182 50.1197 9.78177C51.0786 9.2448 51.9792 8.78497 52.6397 8.45947C52.9702 8.29664 53.241 8.16723 53.4295 8.07839C53.5237 8.03397 53.5974 7.99968 53.6477 7.97641C53.6729 7.96477 53.6922 7.95589 53.7053 7.94987C53.7119 7.94687 53.7169 7.94458 53.7203 7.94302C53.722 7.94224 53.7233 7.94164 53.7242 7.94123C53.7247 7.94102 53.725 7.94086 53.7253 7.94074C53.7254 7.94069 53.7255 7.94064 53.7256 7.94061C53.7257 7.94057 53.7257 7.94054 53.8913 8.30469C54.0568 8.66883 54.0568 8.66883 54.0568 8.66884C54.0567 8.66885 54.0567 8.66887 54.0566 8.66891C54.0565 8.66898 54.0562 8.6691 54.0559 8.66926C54.0551 8.66959 54.054 8.6701 54.0525 8.67079C54.0495 8.67217 54.0448 8.67428 54.0387 8.67711C54.0264 8.68276 54.0079 8.69127 53.9835 8.70252C53.9349 8.72502 53.8629 8.75849 53.7705 8.80204C53.5857 8.88915 53.3191 9.01654 52.9933 9.17708C52.3414 9.49832 51.4539 9.95152 50.5106 10.4798C49.5664 11.0085 48.5716 11.6095 47.7029 12.226C46.8276 12.8472 46.1079 13.4651 45.6896 14.0229L45.3696 13.7829Z" fill="#0B3D3A"/>
<path d="M40.7828 0.717157C40.6266 0.560948 40.3734 0.560948 40.2172 0.717157L37.6716 3.26274C37.5154 3.41895 37.5154 3.67222 37.6716 3.82843C37.8278 3.98464 38.081 3.98464 38.2373 3.82843L40.5 1.56569L42.7627 3.82843C42.919 3.98464 43.1722 3.98464 43.3284 3.82843C43.4846 3.67222 43.4846 3.41895 43.3284 3.26274L40.7828 0.717157ZM40.5 21.0869H40.9V1H40.5H40.1V21.0869H40.5Z" fill="#0B3D3A"/>
</svg>
