<svg width="66" height="58" viewBox="0 0 66 58" fill="none" xmlns="http://www.w3.org/2000/svg">
<path d="M0.5 30.0681V24.5654C0.946211 23.0552 1.49598 22.4711 3.62312 22.429H23.2077C23.2077 22.429 25.55 22.429 27.0465 23.8533C28.543 25.2776 28.9334 27.414 28.9334 27.414V32.6579C28.9334 32.6579 29.1286 35.7007 32.5771 35.8301C36.0255 35.9596 37.0666 33.3051 37.0666 32.6579C37.0666 32.0107 37.0666 27.414 37.0666 27.414C37.0666 26.702 37.5871 25.4718 39.0185 23.8533C40.4499 22.2348 43.1176 22.429 43.1176 22.429H63.2878C64.728 22.7029 65.2016 23.1489 65.5 24.5654V30.0681M0.5 30.0681C0.5 30.0681 1.93143 29.9386 2.77728 30.3918C3.62312 30.845 5.31481 33.3051 8.30781 33.3051C11.3008 33.3051 12.3418 30.0681 15.9204 30.0681C19.499 30.0681 23.533 33.3051 23.533 33.3051M0.5 30.0681V41.0091M42.3368 33.3051C42.3368 33.3051 45.46 30.0681 48.8433 30.0681C52.2267 30.0681 53.8534 33.3051 57.6271 33.3051C61.4009 33.3051 65.5 30.0681 65.5 30.0681M65.5 30.0681V41.0091M0.5 41.0091V54.4752C0.84724 56.1096 1.35734 56.7937 3.62312 57H63.2878C64.7197 56.5081 65.3085 56.0461 65.5 54.4752V41.0091M0.5 41.0091H65.5M5.24975 49.6842H60.7502M40.8403 7.47397H63.2227M40.8403 7.47397L47.2167 1M40.8403 7.47397L47.2167 14.2716M2.77728 7.47397H25.0946M25.0946 7.47397L18.3278 1M25.0946 7.47397L18.3278 14.2716" stroke="#0B3D3A" stroke-width="0.8"/>
</svg>
