<svg width="28" height="58" viewBox="0 0 28 58" fill="none" xmlns="http://www.w3.org/2000/svg">
<path d="M9.65358 11.4445V4.52951C9.65358 4.52951 10.5723 1 13.9647 1C17.357 1 18.2757 4.52951 18.2757 4.52951V11.4445M22.1628 17.7832C22.1628 17.7832 22.1628 14.8299 22.1628 13.8935C22.1628 12.9571 21.0788 11.6988 19.5479 11.4445H8.16944C6.792 11.8085 5.76654 12.9571 5.76654 13.8935C5.76654 14.8299 5.76654 17.7832 5.76654 17.7832M22.1628 17.7832H5.76654M22.1628 17.7832C26.0764 19.6374 26.8979 22.4652 26.9686 23.9058C26.9871 24.2829 26.9959 26.3187 26.9988 29.1641M5.76654 17.7832C2.90775 18.8275 1.10209 22.033 1.03141 23.9058C1.01331 24.3855 1.00448 26.396 1.00136 29.1641M1.01851 46.5955C1.02533 50.0785 1.03141 52.7709 1.03141 53.5105C1.03142 56.0316 2.23287 56.896 3.85835 56.968C5.48384 57.04 22.6575 56.968 24.0003 56.968C25.3431 56.968 26.9686 56.0316 26.9686 53.5105C26.9686 52.7764 26.9746 50.082 26.9813 46.5955M1.01851 46.5955H26.9813M1.01851 46.5955C1.00805 41.2467 0.995875 34.0333 1.00136 29.1641M26.9813 46.5955C26.9917 41.2428 27.0038 34.023 26.9988 29.1641M1.00136 29.1641H26.9988M13.894 31.4691C13.1166 31.4691 9.93627 37.0154 9.93627 37.4476C9.93627 37.8798 9.22953 42.4178 13.894 42.5618C18.5584 42.7059 18.0637 37.8798 18.0637 37.4476C18.0637 37.0154 14.6714 31.4691 13.894 31.4691Z" stroke="#FFFEF5" stroke-width="0.8"/>
</svg>
