<svg width="49" height="58" viewBox="0 0 49 58" fill="none" xmlns="http://www.w3.org/2000/svg">
<path d="M20.4714 57H48V41.9317H46.2095M20.4714 57V48.9036M20.4714 57H18.4571M25.1714 33.3855L26.9199 5.27309M1.34156 5.27309L1 1H27.1857L26.9199 5.27309M1.34156 5.27309H26.9199M1.34156 5.27309L4.82903 48.9036M4.82903 48.9036L5.47619 57H10.1762M4.82903 48.9036H20.4714M20.4714 48.9036V41.9317H22.0381M10.1762 57V53.1767C10.5587 52.2511 11.0274 52.1637 11.9667 52.1379H17.1143C17.9633 52.162 18.2706 52.6292 18.4571 53.1767V57M10.1762 57H18.4571M22.0381 41.9317V37.4337M22.0381 41.9317H46.2095M22.0381 37.4337H46.2095M22.0381 37.4337C22.0381 37.4337 22.2619 33.8353 27.6333 32.261C33.0048 30.6867 37.7048 29.1125 38.6 29.1125C39.4952 29.1125 41.2857 31.1365 43.3 33.1606C45.3143 35.1847 46.2095 37.4337 46.2095 37.4337M46.2095 37.4337V41.9317M25.3952 46.6546V52.1379C25.7539 52.8114 26.0454 53.123 27.1857 53.1767H41.7333C42.5023 53.0545 42.8764 52.8829 43.3 52.1379V46.6546C42.8991 45.9715 42.5034 45.8493 41.7333 45.755H27.1857C26.2529 45.8027 25.8604 45.9991 25.3952 46.6546Z" stroke="#0B3D3A" stroke-width="0.8"/>
</svg>
