<svg width="41" height="57" viewBox="0 0 41 57" fill="none" xmlns="http://www.w3.org/2000/svg">
<path d="M5.87292 45.3486C7.08254 45.3486 8.19351 45.7667 9.07117 46.4658C10.2534 47.4077 11.0106 48.8586 11.0106 50.4863C11.0105 53.3235 8.71012 55.623 5.87292 55.623C3.03583 55.6229 0.736315 53.3234 0.736206 50.4863C0.736206 47.6491 3.03576 45.3487 5.87292 45.3486ZM26.455 37.6172C27.8504 37.6172 29.1157 38.173 30.0419 39.0762C30.9991 40.0097 31.5927 41.3128 31.5927 42.7549C31.5926 45.5921 29.2922 47.8926 26.455 47.8926C24.0533 47.8925 22.0355 46.2434 21.4735 44.0156C21.3719 43.6128 21.3182 43.1902 21.3182 42.7549C21.3182 39.9177 23.6178 37.6173 26.455 37.6172ZM13.2909 39.707C14.7433 39.707 15.9208 40.8845 15.9208 42.3369C15.9208 42.9132 15.7356 43.4449 15.4218 43.8779C14.9432 44.5382 14.1672 44.9668 13.2909 44.9668C12.5441 44.9668 11.8707 44.6557 11.3915 44.1553C10.939 43.6826 10.661 43.0425 10.661 42.3369C10.661 41.789 10.8281 41.2811 11.1141 40.8604C11.5879 40.1634 12.3863 39.7071 13.2909 39.707ZM35.1268 25.498C37.9641 25.498 40.2645 27.7985 40.2645 30.6357C40.2643 33.4728 37.964 35.7725 35.1268 35.7725C34.403 35.7725 33.7152 35.6229 33.0917 35.3535C31.2662 34.5649 29.9893 32.7491 29.9891 30.6357C29.9891 28.5222 31.2661 26.7056 33.0917 25.917C33.7152 25.6476 34.403 25.4981 35.1268 25.498ZM5.14148 27.5879C5.36095 27.5879 5.57424 27.6147 5.77722 27.665C6.92283 27.9492 7.77136 28.9849 7.77136 30.2178C7.77122 31.4506 6.92281 32.4865 5.77722 32.7705C5.57424 32.8208 5.36095 32.8477 5.14148 32.8477C3.6893 32.8475 2.51176 31.67 2.5116 30.2178C2.5116 28.7654 3.68919 27.5881 5.14148 27.5879ZM13.2909 13.0654C15.6579 13.0654 17.6517 14.6668 18.2469 16.8457C18.3648 17.2774 18.4286 17.732 18.4286 18.2021C18.4286 21.0394 16.1282 23.3398 13.2909 23.3398C11.8463 23.3398 10.5411 22.7445 9.6073 21.7842C8.7071 20.8585 8.15417 19.5949 8.15417 18.2021C8.15433 16.2031 9.29584 14.4703 10.9647 13.6211C11.6626 13.266 12.4529 13.0655 13.2909 13.0654ZM26.5594 15.5723C26.9839 15.5723 27.3841 15.6728 27.7382 15.8506C28.5995 16.2833 29.1892 17.1743 29.1893 18.2021C29.1893 18.9515 28.8763 19.6279 28.3729 20.1074C27.9008 20.557 27.2625 20.832 26.5594 20.832C25.1071 20.8319 23.9296 19.6545 23.9296 18.2021C23.9296 17.8829 23.9871 17.5779 24.0907 17.2959C24.4603 16.2898 25.4265 15.5724 26.5594 15.5723ZM30.9481 0.423828C33.7851 0.424025 36.0847 2.7235 36.0848 5.56055C36.0848 8.39769 33.7852 10.698 30.9481 10.6982C30.5128 10.6982 30.0902 10.6436 29.6874 10.542C27.4593 9.98013 25.8104 7.96248 25.8104 5.56055C25.8105 2.72338 28.1109 0.423828 30.9481 0.423828ZM5.87292 2.93066C7.32528 2.93066 8.5027 4.10821 8.50281 5.56055C8.50281 6.39593 8.11413 7.14067 7.50574 7.62305C7.05721 7.97857 6.49004 8.19043 5.87292 8.19043C4.42059 8.19032 3.24304 7.01291 3.24304 5.56055C3.24315 4.10828 4.42066 2.93077 5.87292 2.93066Z" stroke="#0B3D3A" stroke-width="0.8"/>
<path d="M7.4403 8.17188L10.4702 13.5002M27.709 15.4853L29.4851 10.8883M18.6194 16.6346L23.7388 17.1569M28.4403 20.6047L32.8284 25.7241M32.306 35.3361L29.903 38.4704M21.0224 43.2764H16.1119M11.4104 44.5301L9.63433 46.5152M6.29105 32.9331L11.2015 40.142M6.29105 27.5002L9.73881 22.3808" stroke="#0B3D3A" stroke-width="0.8"/>
</svg>
