<svg width="77" height="58" viewBox="0 0 77 58" fill="none" xmlns="http://www.w3.org/2000/svg">
<path d="M0.5 35.3C0.5 35.3 4.72222 36 10.1173 36C15.5123 36 18.7963 33.9 27.2407 34.6C35.6852 35.3 33.5741 42.7667 38.5 43C43.4259 43.2333 40.6111 34.6 46.9444 34.6C53.2778 34.6 61.7222 36 66.179 36C70.6358 36 76.2654 35.3 76.2654 35.3M11.7593 21.5333V5.43333M11.7593 5.43333L6.83333 10.3333M11.7593 5.43333L16.6852 10.3333M65.2407 21.5333V5.43333M65.2407 5.43333L60.3148 10.3333M65.2407 5.43333L70.1667 10.3333M38.5 22.9333V1M38.5 1L31.9321 7.53333M38.5 1L44.8333 7.53333M0.734568 27.1322C0.734568 27.1322 4.95679 27.8322 10.3519 27.8322C15.7469 27.8322 19.0309 25.7322 27.4753 26.4322C35.9198 27.1322 32.8704 34.5988 37.7963 34.8322C42.7222 35.0655 40.8457 26.4322 47.179 26.4322C53.5123 26.4322 61.9568 27.8322 66.4136 27.8322C70.8704 27.8322 76.5 27.1322 76.5 27.1322V57H0.734568V27.1322ZM9.41358 42.3C9.41358 43.2021 8.67844 43.9333 7.7716 43.9333C6.86477 43.9333 6.12963 43.2021 6.12963 42.3C6.12963 41.3979 6.86477 40.6667 7.7716 40.6667C8.67844 40.6667 9.41358 41.3979 9.41358 42.3ZM21.142 42.3C21.142 43.2021 20.4068 43.9333 19.5 43.9333C18.5932 43.9333 17.858 43.2021 17.858 42.3C17.858 41.3979 18.5932 40.6667 19.5 40.6667C20.4068 40.6667 21.142 41.3979 21.142 42.3ZM34.2778 46.5C34.2778 47.4021 33.5426 48.1333 32.6358 48.1333C31.729 48.1333 30.9938 47.4021 30.9938 46.5C30.9938 45.5979 31.729 44.8667 32.6358 44.8667C33.5426 44.8667 34.2778 45.5979 34.2778 46.5ZM46.2407 46.7333C46.2407 47.6354 45.5056 48.3667 44.5988 48.3667C43.6919 48.3667 42.9568 47.6354 42.9568 46.7333C42.9568 45.8313 43.6919 45.1 44.5988 45.1C45.5056 45.1 46.2407 45.8313 46.2407 46.7333ZM59.3765 42.3C59.3765 43.2021 58.6414 43.9333 57.7346 43.9333C56.8277 43.9333 56.0926 43.2021 56.0926 42.3C56.0926 41.3979 56.8277 40.6667 57.7346 40.6667C58.6414 40.6667 59.3765 41.3979 59.3765 42.3ZM71.3395 42.3C71.3395 43.2021 70.6044 43.9333 69.6975 43.9333C68.7907 43.9333 68.0556 43.2021 68.0556 42.3C68.0556 41.3979 68.7907 40.6667 69.6975 40.6667C70.6044 40.6667 71.3395 41.3979 71.3395 42.3ZM15.5123 50.2333C15.5123 50.8777 14.9872 51.4 14.3395 51.4C13.6918 51.4 13.1667 50.8777 13.1667 50.2333C13.1667 49.589 13.6918 49.0667 14.3395 49.0667C14.9872 49.0667 15.5123 49.589 15.5123 50.2333ZM27.7099 50.2333C27.7099 50.8777 27.1848 51.4 26.537 51.4C25.8893 51.4 25.3642 50.8777 25.3642 50.2333C25.3642 49.589 25.8893 49.0667 26.537 49.0667C27.1848 49.0667 27.7099 49.589 27.7099 50.2333ZM39.6728 51.6333C39.6728 52.2777 39.1477 52.8 38.5 52.8C37.8523 52.8 37.3272 52.2777 37.3272 51.6333C37.3272 50.989 37.8523 50.4667 38.5 50.4667C39.1477 50.4667 39.6728 50.989 39.6728 51.6333ZM51.8704 50.2333C51.8704 50.8777 51.3453 51.4 50.6975 51.4C50.0498 51.4 49.5247 50.8777 49.5247 50.2333C49.5247 49.589 50.0498 49.0667 50.6975 49.0667C51.3453 49.0667 51.8704 49.589 51.8704 50.2333ZM63.5988 50.2333C63.5988 50.8777 63.0737 51.4 62.4259 51.4C61.7782 51.4 61.2531 50.8777 61.2531 50.2333C61.2531 49.589 61.7782 49.0667 62.4259 49.0667C63.0737 49.0667 63.5988 49.589 63.5988 50.2333Z" stroke="#0B3D3A" stroke-width="0.8"/>
</svg>
