<svg width="91" height="58" viewBox="0 0 91 58" fill="none" xmlns="http://www.w3.org/2000/svg">
<path d="M48.3102 23.8838C48.3102 23.8838 43.0195 24.8136 35.7427 25.3269M52.9612 29.5999V32.5565C52.9612 32.5565 46.2322 36.3016 26.7377 35.9074C7.24318 35.5132 3.97761 32.5565 3.97761 32.5565V31.1768M3.97761 31.1768V21.617C3.97761 21.617 4.28686 21.7278 4.85505 21.9126M3.97761 31.1768C3.97761 31.1768 1.20682 31.3739 1.00891 33.0493M1.00891 33.0493C0.810992 34.7247 3.97761 35.9074 3.97761 35.9074C3.97761 35.9074 12.29 37.977 26.7377 38.7655C41.1853 39.5539 56.5237 34.4291 56.5237 34.4291V51.9717C56.5237 51.9717 50.7841 56.8994 30.8938 56.998C11.0035 57.0965 2.5922 53.5486 2.09742 53.3515C1.60263 53.1544 0.992297 52.2714 1.00891 51.2818V33.0493ZM89.7731 48.7194L83.7368 55.1255C82.9737 55.6331 82.5155 55.5932 81.6587 55.1255C81.6587 55.1255 71.4661 49.3108 59.4923 36.6958C47.5186 24.0809 45.0447 18.6604 45.1436 17.6748C45.1682 17.4303 45.5461 16.8823 46.1006 16.1966M89.7731 48.7194C90.1358 47.7338 90.0089 47.2376 89.7731 46.3541C89.7731 46.3541 83.7368 37.2871 73.0494 26.5447C62.3621 15.8023 52.7633 10.3818 52.4664 10.2833C52.1695 10.1847 51.5647 10.4898 51.081 10.776M89.7731 48.7194C89.7731 48.7194 79.6795 43.2989 67.9037 31.1767C56.1278 19.0546 51.081 10.776 51.081 10.776M51.081 10.776C51.081 10.776 47.7806 14.1188 46.1006 16.1966M4.85505 21.9126C7.71861 22.8443 17.1592 25.6577 26.7377 25.6577C29.9059 25.6577 32.9686 25.5226 35.7427 25.3269M4.85505 21.9126C4.85505 21.9126 4.85505 18.2661 6.84734 15.4081C8.83963 12.55 13.6754 11.5644 13.6754 11.5644C13.6754 11.5644 23.8679 10.776 27.2324 9.10059C30.597 7.42517 29.1126 1.61047 29.1126 1.61047C29.2066 1.05342 29.3683 0.848225 30.3001 1.11769C30.3001 1.11769 40.1958 3.97577 41.1853 11.5644C41.3086 12.5093 41.3167 13.4323 41.2365 14.3241M35.7427 25.3269C35.7427 25.3269 40.6729 20.5948 41.2365 14.3241M41.2365 14.3241C43.4519 14.5588 44.6003 14.8377 46.1006 16.1966" stroke="#FFFEF5" stroke-width="0.8"/>
</svg>
