<svg width="50" height="58" viewBox="0 0 50 58" fill="none" xmlns="http://www.w3.org/2000/svg">
<path d="M33.9626 5.42204V8.66691L38.2583 10.9023L40.979 8.88324M33.9626 5.42204L40.979 8.88324M33.9626 5.42204L33.3898 5.0615L34.3206 1.02344H50M40.979 8.88324L41.8381 9.17167L46.9214 3.97988H50M28.4068 12.5487L26.5656 9.66741M27.161 13.7836L20.5169 9.17167M17.1803 42.1521C16.8775 43.3418 15.9693 46.0186 15.9693 46.6135C15.9693 47.2083 15.6666 50.48 19.2996 50.7775C22.9326 51.0749 22.9326 47.8032 22.9326 46.6135C22.9325 45.4238 22.0244 43.6392 22.0243 42.1521C22.0243 40.665 21.7216 35.3113 22.3271 32.6344C22.9326 29.9576 23.8408 27.2807 24.7491 25.1987C25.6574 23.1168 26.0998 21.6244 27.7766 18.6553C29.4534 15.6863 33.5743 11.3339 33.2261 10.9222C32.8779 10.5106 28.0794 16.5734 26.5656 18.6553C25.0518 20.7373 23.5374 22.5989 22.3271 25.1987C21.1167 27.7986 20.5648 30.2417 19.9051 32.6344C19.2453 35.0271 17.4831 40.9624 17.1803 42.1521ZM1.13456 29.6601H18.9969L16.2721 37.6907C16.2721 37.6907 12.9418 39.1778 10.2171 39.1778C7.49232 39.1778 6.28132 37.9881 4.46482 37.9881C2.64831 37.9881 1.43731 38.8804 1.13456 38.8804C0.831805 38.8804 1.13456 29.6601 1.13456 29.6601ZM1.13456 40.0701C1.13456 40.0701 3.25384 39.1778 4.46482 39.1778C5.67579 39.1778 8.09786 40.3675 10.2171 40.3675C12.3363 40.3675 15.9693 38.8804 15.9693 39.1778C15.9693 39.4752 13.2446 44.2341 13.2446 46.6135C13.2446 48.9929 14.7583 51.3723 15.0611 51.6698C15.3638 51.9672 16.2721 52.8595 19.2996 53.1569C22.3271 53.4543 23.8408 52.2646 24.4463 51.6698C25.0518 51.0749 25.6573 48.9929 25.6573 46.6135C25.6573 44.2341 23.8408 39.4752 24.1436 39.1778C24.4463 38.8804 27.1711 40.665 29.5931 40.665C32.0151 40.665 35.4206 39.4433 35.9509 39.1778C36.4811 38.9124 38.3729 39.1778 38.3729 39.1778V57.0234H1.13456V40.0701ZM24.7491 29.6601H38.3729V37.9881C38.3729 37.9881 36.4811 37.6775 35.6506 37.9881C34.8201 38.2987 33.3022 39.1778 29.5931 38.9123C25.884 38.6467 23.5381 37.9881 23.5381 37.9881L24.7491 29.6601Z" stroke="#0B3D3A" stroke-width="0.8"/>
</svg>
