<svg width="58" height="57" viewBox="0 0 58 57" fill="none" xmlns="http://www.w3.org/2000/svg">
<path d="M45.9362 27.4815C45.9362 27.4815 45.9362 20.7817 45.9362 15.7284M29.0851 47.5309C29.0851 47.5309 5.42553 47.5309 3.7234 47.5309C2.02128 47.5309 1 45.8025 1 44.0741C1 42.7661 1 24.9282 1 15.7284M9.34043 0V11.0617M23.6383 0V11.0617M37.4255 0V11.0617M45.9362 15.7284C45.9362 13.1247 45.9362 10.9581 45.9362 10.3704C45.9362 8.64198 44.9809 8.21086 43.383 7.95062C43.383 7.95062 5.93617 7.95062 3.7234 7.95062C1.51064 7.95062 1 8.98765 1 10.3704C1 10.7067 1 12.7713 1 15.7284M45.9362 15.7284H1M8.31915 25.9259H12.9149M21.2553 25.9259H25.8511M34.1915 25.9259H38.7872M8.31915 37.5062H12.9149M21.2553 37.5062H25.8511M39.6383 42.8642L43.383 47.0123L50.1915 39.4074M57 43.3827C57 50.3511 51.4369 56 44.5745 56C37.712 56 32.1489 50.3511 32.1489 43.3827C32.1489 36.4144 37.712 30.7654 44.5745 30.7654C51.4369 30.7654 57 36.4144 57 43.3827Z" stroke="#0B3D3A" stroke-width="0.8"/>
</svg>
