<svg width="47" height="58" viewBox="0 0 47 58" fill="none" xmlns="http://www.w3.org/2000/svg">
<path d="M29.5958 23.7757H46V35.332V57H1.16204L1.16202 36.4154C0.79748 36.4154 1.16204 23.7757 1.16204 23.7757H23.0342M29.5958 23.7757H23.0342M29.5958 23.7757C29.5958 23.7757 28.5022 31.7206 28.8668 35.332C29.2313 38.9433 30.6895 41.4712 30.6895 44.3603C30.6895 47.2494 29.9604 49.7773 29.2313 50.4996C28.5022 51.2219 26.6796 52.6664 23.0342 52.3053C19.3888 51.9441 18.2952 50.8607 17.9307 50.4996C17.5661 50.1385 15.7435 47.2494 15.7435 44.3603C15.7435 41.4712 18.0486 38.1776 19.0243 35.332C20 32.4864 23.0342 23.7757 23.0342 23.7757M20.4824 38.9433C20.1178 40.3878 19.0242 43.638 19.0243 44.3603C19.0243 45.0826 18.6597 49.0551 23.0342 49.4162C27.4086 49.7773 27.4087 45.8048 27.4086 44.3603C27.4086 42.9158 26.3151 40.749 26.315 38.9433C26.315 37.1376 25.9505 30.6372 26.6796 27.387C27.4086 24.1368 28.5022 20.8866 29.5958 18.3587C30.6895 15.8307 31.2222 14.0188 33.2412 10.4137C35.2602 6.8087 40.2222 1.52404 39.8029 1.02426C39.3836 0.524472 33.6058 7.8858 31.7831 10.4137C29.9603 12.9417 28.1369 15.202 26.6796 18.3587C25.2222 21.5154 24.5576 24.4818 23.7633 27.387C22.9689 30.2922 20.847 37.4988 20.4824 38.9433Z" stroke="#0B3D3A" stroke-width="0.8"/>
</svg>
