<svg width="52" height="58" viewBox="0 0 52 58" fill="none" xmlns="http://www.w3.org/2000/svg">
<path d="M10.6435 31.9588C9.63124 26.4661 9.63118 25.7171 9.12505 22.2217C8.61891 18.7264 9.12505 15.2311 9.12505 14.7317C9.12505 14.2324 9.88431 12.4847 11.4027 12.4847C12.921 12.4847 13.9334 14.7317 13.9334 14.7317C14.7344 17.5119 15.958 19.7251 17.4763 19.7251C18.9947 19.7251 41.2648 19.7251 42.7832 19.7251C44.3015 19.7251 45.9316 17.9812 46.3261 14.7317C46.3261 14.7317 46.3262 12.4847 48.3507 12.4847C50.3752 12.4847 51.3875 13.9827 51.3875 14.7317C51.3875 15.4807 51.6406 19.7251 51.3875 22.2217C51.1344 24.7184 49.616 31.9588 49.616 31.9588M10.6435 31.9588H49.616M10.6435 31.9588C11.0764 34.3081 12.1575 37.2968 13.2531 39.9481M49.616 31.9588C49.119 34.8081 48.6728 37.4841 48.2656 39.9481M13.2531 39.9481H48.2656M13.2531 39.9481C13.657 40.9258 14.063 41.8575 14.4391 42.6945M48.2656 39.9481C48.109 40.8957 47.9581 41.8118 47.8123 42.6945M14.4391 42.6945C15.428 44.8946 16.2109 46.4395 16.2109 46.4395H29.6235C30.0805 51.3585 29.1159 53.5431 26.0806 56.9255C26.0806 56.9255 42.7831 56.9255 44.3015 56.9255C45.4161 56.9255 46.3638 51.4654 47.8123 42.6945M14.4391 42.6945H47.8123M25.8275 1C25.8275 1 24.3091 2.24834 24.056 3.99601C23.8029 5.74368 28.1051 7.99069 27.852 10.737C27.599 13.4834 25.0683 12.4847 25.0683 14.2324C25.0683 15.9801 26.8398 17.2284 26.8398 17.2284M34.4318 3.24701C34.4318 3.24701 32.9134 5.24435 32.9134 6.74235C32.9134 8.24036 36.2033 9.73836 35.9502 11.486C35.6972 13.2337 33.6726 13.9827 33.6726 14.7317C33.6726 15.4807 35.4441 17.2284 35.4441 17.2284M3.81055 21.2231L14.6925 49.1858L26.8398 48.4368C26.8398 48.4368 26.8398 56.0511 20.26 56.9255C13.6802 57.8 11.1495 50.6838 11.1495 50.6838L0.520659 23.4701C0.520659 23.4701 0.26759 20.9734 1.53293 20.7237C2.79828 20.4741 3.81055 21.2231 3.81055 21.2231Z" stroke="#FFFEF5" stroke-width="0.8"/>
</svg>
