<svg width="75" height="58" viewBox="0 0 75 58" fill="none" xmlns="http://www.w3.org/2000/svg">
<path d="M53.8641 34.6675C53.8641 34.6675 60.0719 32.083 64.2839 31.5215C67.7613 31.0579 73.2665 31.5215 73.2665 31.5215C74.0542 31.902 74.1773 32.2668 73.7798 32.914C73.7798 32.914 69.3142 34.2549 67.3123 35.1833C65.3105 36.1116 62.3847 38.123 57.8164 43.951C53.2481 49.7789 47.4479 54.008 47.4479 54.008C47.4479 54.008 44.7777 55.4214 41.9557 56.3053M53.8641 34.6675C53.8641 34.6675 55.8659 26.9826 59.151 22.444C62.436 17.9055 65.9264 15.9456 65.9264 15.9456C66.146 14.8455 65.7537 14.6461 64.2839 14.9141C64.2839 14.9141 58.2784 17.0803 56.0712 18.6275C53.8641 20.1747 49.8091 22.444 44.9328 27.9109M53.8641 34.6675C53.8641 34.6675 52.6835 39.2058 50.6817 45.1369C48.6798 51.0679 41.9557 56.3053 41.9557 56.3053M21.8346 34.6675C21.8346 34.6675 14.5972 31.9855 10.5422 31.5215C6.48721 31.0575 1.55961 31.5215 1.55961 31.5215C0.72543 32.0281 0.907 32.3426 1.55961 32.914C1.55961 32.914 4.48537 33.4813 7.82177 35.1833C11.1582 36.8853 17.3177 43.951 17.3177 43.951C17.3177 43.951 23.5798 51.8419 27.9941 54.008C29.2162 54.6077 30.269 55.1006 31.2279 55.5011M21.8346 34.6675C21.8346 34.6675 18.7036 26.1058 16.0858 22.1346C13.468 18.1633 9.413 16.0488 9.413 16.0488C8.98817 15.0117 9.22592 14.6588 10.5422 14.5531C10.5422 14.5531 15.1619 15.9972 20.5001 19.4011C25.8383 22.8051 31.9465 29.9223 31.9465 29.9223M21.8346 34.6675C21.8346 34.6675 24.1958 42.1971 25.2224 45.8073C26.249 49.4176 31.2279 55.5011 31.2279 55.5011M31.2279 55.5011C33.7327 56.5471 35.5961 56.9621 38.1573 56.9994C39.2853 57.0158 40.637 56.7183 41.9557 56.3053M31.9465 29.9223C31.9465 29.9223 35.6999 34.7496 37.7182 39.5668M31.9465 29.9223C31.9465 29.9223 34.5643 24.0944 35.9502 17.6992C37.3361 11.3039 37.2847 8.51888 36.9254 6.66219C36.5661 4.80551 35.5396 1.91733 35.5396 1.91733C35.6822 1.01405 35.9454 0.787364 36.9254 1.19528C36.9254 1.19528 40.4158 4.85708 42.8796 12.7996C45.3434 20.7421 44.9328 27.9109 44.9328 27.9109M41.9557 56.3053C41.9557 56.3053 40.0565 47.4577 38.568 41.9908C38.3523 41.1988 38.0602 40.3829 37.7182 39.5668M37.7182 39.5668C37.7182 39.5668 40.0565 33.3778 44.9328 27.9109" stroke="#FFFEF5" stroke-width="0.8"/>
</svg>
