<svg width="76" height="58" viewBox="0 0 76 58" fill="none" xmlns="http://www.w3.org/2000/svg">
<path d="M55.4006 26.167H53.3245M55.4006 26.167L55.5695 23.2028M55.4006 26.167C55.4006 26.167 73.9468 25.6844 73.6008 24.4321M53.3245 26.167C53.3245 26.167 53.3482 24.909 53.3716 23.2028M53.3245 26.167C42.429 25.9363 34.5142 26.0178 35.1934 24.4321M44.1668 11.415C44.1851 11.7207 44.2764 12.0413 44.5358 12.2423C45.1587 12.7248 46.0583 12.2423 46.0583 12.2423C46.0583 12.2423 47.8114 10.8572 49.38 10.3557M44.1668 11.415C44.1412 10.9868 44.259 10.5878 44.259 10.5878L53.3245 1.4885C53.3245 1.4885 53.6706 0.937029 54.9854 1.00596C56.3002 1.0749 56.7847 3.074 56.7847 3.074L55.9542 16.4473L55.5695 23.2028M44.1668 11.415L0.86908 54.6369C0.86908 54.6369 0.0386505 55.9466 0.86908 56.636C1.69951 57.3253 2.73755 56.636 2.73755 56.636L34.1397 25.4776M49.38 10.3557C50.1848 10.0983 50.941 10.0736 51.3869 10.5878C52.7017 12.1044 53.117 13.0695 53.3245 14.1035C53.462 14.7883 53.4174 19.8571 53.3716 23.2028M49.38 10.3557L35.1934 24.4321M53.3716 23.2028C45.2357 23.127 40.9863 23.2542 35.1934 24.4321M35.1934 24.4321L34.1397 25.4776M55.5695 23.2028C55.5695 23.2028 73.2548 23.1798 73.6008 24.4321M73.6008 24.4321C73.6008 24.4321 74.2928 24.5815 74.4312 25.4776C74.5338 26.1418 74.1802 26.6924 73.8776 26.961M34.1397 25.4776C34.0694 25.9278 34.2595 26.3544 34.5706 26.6698M34.5706 26.6698C34.7828 26.8849 35.0513 27.0482 35.3318 27.1321C36.0239 27.3389 44.3974 28.3039 54.2241 28.235C64.0508 28.1661 73.324 27.201 73.6008 27.1321C73.6724 27.1142 73.7719 27.0548 73.8776 26.961M34.5706 26.6698V27.8214M34.5706 27.8214C33.6344 28.1368 33.1282 28.3285 33.0482 29.338M34.5706 27.8214C36.5565 28.4842 37.9637 28.725 41.1448 28.8554M33.0482 29.338V55.533C33.1876 55.657 33.432 55.7398 34.1397 55.9466C34.8474 56.1534 41.4909 56.7739 54.2241 56.9807C66.9573 57.1875 74.4312 55.6709 74.8464 55.533C75.2616 55.3952 75.4692 55.1884 75.4692 55.1884C75.4692 55.1884 75.5384 30.303 75.4692 29.338M33.0482 29.338C33.0482 29.338 35.4702 31.1992 54.2241 31.1992C72.978 31.1992 75.4692 29.338 75.4692 29.338M75.4692 29.338C75.1312 28.4633 74.8714 28.043 73.8776 27.8214M73.8776 27.8214V26.961M73.8776 27.8214C71.4561 28.7785 70.0203 28.8441 67.4418 28.8554" stroke="#0B3D3A" stroke-width="0.8"/>
</svg>
