<svg width="49" height="58" viewBox="0 0 49 58" fill="none" xmlns="http://www.w3.org/2000/svg">
<path d="M27.6095 29.2065V20.6232H28.6291M38.8243 39.6291H40.6594M41.9848 43.1033V39.6291H40.6594M40.6594 39.6291V39.4247V20.6232H39.7419M28.6291 20.6232V8.25908C28.6291 8.25908 29.2004 4.66739 30.8619 2.53673M28.6291 20.6232H39.7419M39.7419 20.6232V11.631M39.7419 11.631V8.25908C39.7419 8.25908 37.0911 0.799759 33.4208 1.00412C32.3701 1.06263 31.5283 1.68216 30.8619 2.53673M39.7419 11.631C39.7419 11.631 35.7657 10.4048 33.9306 7.9524C32.0954 5.50002 30.8619 2.53673 30.8619 2.53673M48 52.8105L1 6.52185M28.6291 37.2788V39.6291M31.3818 39.6291H26.3861V57H41.9848V49.8472M31.3818 43.4097V53.0149M11.9089 37.2788V53.0149M22.308 32.8849H6.91323V57H22.308V32.8849Z" stroke="#0B3D3A" stroke-width="0.8"/>
</svg>
