<svg width="26" height="58" viewBox="0 0 26 58" fill="none" xmlns="http://www.w3.org/2000/svg">
<path d="M2.28571 1H0.5V7.91579H2.28571M2.28571 1V7.91579M2.28571 1H23.4911M2.28571 7.91579H5.1875M23.4911 1H25.5V7.91579H23.4911M23.4911 1V7.91579M23.4911 7.91579H20.5893M3.625 3.2309H22.1518M3.625 5.4618H22.1518M5.1875 7.91579V11.039H7.41964M5.1875 7.91579H20.5893M20.5893 7.91579V11.039H17.9107M7.41964 11.039C7.41964 11.039 10.7679 18.6241 10.5446 24.6475C10.3962 28.653 9.06328 36.802 8.18684 42.2716M7.41964 11.039H17.9107M17.9107 11.039C17.9107 11.039 15.9018 16.8394 15.4554 24.6475C15.168 29.6727 16.2675 37.1926 17.0878 42.2716M8.18684 42.2716C7.74531 45.0271 7.41964 47.1026 7.41964 47.6258C7.41964 49.1874 7.19643 56.7725 12.5536 56.9956C17.9107 57.2187 17.9107 48.9643 17.9107 47.6258C17.9107 47.1487 17.5421 45.0845 17.0878 42.2716M8.18684 42.2716C8.18684 42.2716 8.75893 49.1874 12.5536 49.4105C16.3482 49.6336 17.0878 42.2716 17.0878 42.2716" stroke="#0B3D3A" stroke-width="0.8"/>
</svg>
