<svg width="56" height="58" viewBox="0 0 56 58" fill="none" xmlns="http://www.w3.org/2000/svg">
<path d="M16.3567 19.4712V7.45026L27.5883 1L38.8198 7.45026V19.4712M16.3567 19.4712L27.5883 25.9215M16.3567 19.4712L6.14627 25.3351V38.5288L17.2409 44.9004L27.5883 38.9579M38.8198 19.4712L27.5883 25.9215M38.8198 19.4712L49.0303 25.3351V38.5288L38.8198 44.9004L27.5883 38.9579M27.5883 25.9215V38.9579M28.1467 5.98429L21.3674 9.87763V18.2984M10.4616 27.6806V36.4764L17.2409 40.3698M38.8198 40.3698L45.5991 36.4764V27.6806M43.7685 9.87763V16.2461L49.3842 19.4712L55 16.2461V9.87763L49.3842 6.6525L43.7685 9.87763ZM1 9.87763V16.2461L6.61576 19.4712L12.2315 16.2461V9.87763L6.61576 6.6525L1 9.87763ZM21.9726 47.4064V53.7749L27.5884 57L33.2041 53.7749V47.4064L27.5884 44.1813L21.9726 47.4064Z" stroke="#0B3D3A" stroke-width="0.8"/>
</svg>
