<svg width="59" height="58" viewBox="0 0 59 58" fill="none" xmlns="http://www.w3.org/2000/svg">
<path d="M21.9335 36.5432H29.7513L33.5628 43.1449L29.7513 49.7466H21.9335L18.1221 43.1449L21.9335 36.5432ZM29.7619 23.3399H37.5796L41.3911 29.9415L37.5796 36.5432H29.7619L25.9504 29.9415L29.7619 23.3399ZM18.1327 16.7397H25.9504L29.7619 23.3414L25.9504 29.9431H18.1327L14.3212 23.3414L18.1327 16.7397ZM29.7618 10.1367H37.5796L41.3911 16.7384L37.5796 23.3401H29.7618L25.9504 16.7384L29.7618 10.1367Z" stroke="#0B3D3A" stroke-width="0.8"/>
<path d="M12.4608 51.2088L14.8429 55.166L17.0788 51.1245L12.4608 51.2088ZM49.9862 10.0352C49.6878 10.3016 49.6878 10.3015 49.6878 10.3015C49.6878 10.3016 49.6879 10.3017 49.6881 10.3019C49.6884 10.3023 49.689 10.3029 49.6898 10.3039C49.6915 10.3058 49.6942 10.3088 49.6978 10.3129C49.7051 10.3212 49.7162 10.3339 49.7311 10.3511C49.7608 10.3854 49.8052 10.4373 49.863 10.5063C49.9784 10.6442 50.1469 10.8503 50.3566 11.12C50.7761 11.6595 51.3599 12.4531 52.0131 13.4647C53.3202 15.4892 54.9008 18.3803 56.0002 21.8501C58.1949 28.7767 58.4761 38.0086 50.8068 47.306L51.1154 47.5605L51.424 47.815C59.3034 38.2629 59.02 28.7321 56.7629 21.6084C55.6364 18.0531 54.0193 15.0971 52.6852 13.0308C52.0178 11.9971 51.4201 11.1844 50.9882 10.6289C50.7722 10.3512 50.5976 10.1376 50.4764 9.99274C50.4158 9.92031 50.3685 9.86506 50.336 9.82753C50.3198 9.80877 50.3072 9.79444 50.2986 9.78462C50.2943 9.77971 50.2909 9.77592 50.2886 9.77327C50.2874 9.77194 50.2865 9.7709 50.2858 9.77014C50.2854 9.76976 50.2851 9.76941 50.285 9.76922C50.2847 9.76893 50.2845 9.76872 49.9862 10.0352ZM51.1154 47.5605L50.8068 47.306C44.8659 54.5081 37.8238 56.657 31.4149 56.6C24.9874 56.5428 19.1878 54.2649 15.7882 52.5931L15.6117 52.952L15.4352 53.311C18.8852 55.0076 24.8096 57.3413 31.4077 57.4C38.0244 57.4588 45.3093 55.2278 51.424 47.815L51.1154 47.5605Z" fill="#0B3D3A"/>
<path d="M46.5393 6.79119L44.1572 2.83403L41.9213 6.87554L46.5393 6.79119ZM9.01395 47.9648C9.3123 47.6984 9.31236 47.6985 9.31236 47.6985C9.31228 47.6984 9.31221 47.6983 9.31205 47.6981C9.31171 47.6977 9.31112 47.6971 9.31028 47.6961C9.30861 47.6942 9.30594 47.6912 9.3023 47.6871C9.29503 47.6788 9.28387 47.6661 9.26903 47.6489C9.23935 47.6146 9.19489 47.5627 9.13717 47.4937C9.02171 47.3558 8.85318 47.1497 8.64347 46.88C8.22401 46.3405 7.64019 45.5469 6.98701 44.5353C5.67992 42.5108 4.09928 39.6197 2.99989 36.1499C0.805222 29.2233 0.523998 19.9914 8.19328 10.694L7.88472 10.4395L7.57615 10.185C-0.303265 19.7371 -0.0198746 29.2679 2.23726 36.3916C3.36376 39.9469 4.98081 42.9029 6.31493 44.9692C6.98236 46.0029 7.58004 46.8156 8.01191 47.3711C8.22787 47.6488 8.40248 47.8624 8.52373 48.0073C8.58436 48.0797 8.63166 48.1349 8.66413 48.1725C8.68037 48.1912 8.69291 48.2056 8.70154 48.2154C8.70586 48.2203 8.70921 48.2241 8.71156 48.2267C8.71274 48.2281 8.71366 48.2291 8.71434 48.2299C8.71468 48.2302 8.71499 48.2306 8.71516 48.2308C8.71541 48.2311 8.7156 48.2313 9.01395 47.9648ZM7.88472 10.4395L8.19328 10.694C14.1342 3.49189 21.1764 1.34301 27.5853 1.40001C34.0127 1.45718 39.8123 3.73513 43.2119 5.40691L43.3884 5.04797L43.565 4.68902C40.115 2.99245 34.1905 0.658733 27.5924 0.600044C20.9757 0.541191 13.6908 2.77225 7.57615 10.185L7.88472 10.4395Z" fill="#0B3D3A"/>
</svg>
