<svg width="63" height="58" viewBox="0 0 63 58" fill="none" xmlns="http://www.w3.org/2000/svg">
<path d="M20.4282 1.68491C10.7757 6.83974 5.59153 10.0415 1.50825 22.8222C1.50825 22.8222 -1.90355 38.986 8.95218 48.3112C19.8079 57.6365 27.8722 57.0148 32.8348 57.0148C37.7974 57.0148 49.5836 54.2172 55.7869 39.6077C57.6395 35.2446 58.0813 30.9924 57.7896 27.174M52.3751 11.6319C52.3751 11.6319 57.1047 18.2067 57.7896 27.174M57.7896 27.174C57.7896 27.174 50.8243 27.174 45.2413 20.9571C39.6584 14.7403 43.0702 12.2535 42.4499 7.90175C41.8295 3.54996 38.7279 2.30659 38.7279 2.30659C38.7279 2.30659 48.3163 -2.66688 57.7896 6.96923C67.263 16.6053 57.7896 27.174 57.7896 27.174ZM31.9043 15.9837C25.6318 21.8494 21.6689 30.5932 21.3587 32.7691C21.0485 34.945 21.979 43.9595 30.0433 43.3378C38.1075 42.7161 37.4872 36.1884 37.7974 34.3233C38.1075 32.4583 32.4954 23.9879 31.9043 15.9837Z" stroke="#0B3D3A" stroke-width="0.8"/>
</svg>
