<svg width="55" height="58" viewBox="0 0 55 58" fill="none" xmlns="http://www.w3.org/2000/svg">
<path d="M42.2658 37.537C42.2658 37.537 42.2658 49.9278 42.2658 52.7872C42.2658 55.6466 40.1291 57.0763 38.7046 56.9969C37.2801 56.9174 6.57479 56.9969 4.43808 56.9969C2.30138 56.9969 1.03518 55.5672 1.03517 52.7872C1.03517 50.0072 0.956037 6.32169 1.03517 4.0977C1.11431 1.87371 2.69707 1 4.43808 1C6.1791 1 30.6326 1 30.6326 1M30.6326 1L42.2658 12.8348M30.6326 1V10.9285C30.6375 11.9503 30.5534 12.8348 32.2153 12.8348C33.8772 12.8348 42.2658 12.8348 42.2658 12.8348M42.2658 12.8348V24.8249M22.0857 45.0032L43.2154 23.8753L44.4025 22.6839M22.0857 45.0032L20.1864 52.7872C20.0473 53.2845 20.137 53.3958 20.503 53.3432L28.4167 51.4369M22.0857 45.0032L28.4167 51.4369M28.4167 51.4369L50.7335 28.9677M44.4025 22.6839C44.4025 22.6839 46.7766 20.301 47.4097 19.6656C48.0428 19.0302 48.9925 19.0302 49.7047 19.6656C50.4169 20.301 53.1076 22.9222 53.5824 23.5576C54.0573 24.193 54.2155 25.3844 53.5824 26.0993C52.9493 26.8142 50.7335 28.9677 50.7335 28.9677M44.4025 22.6839L50.7335 28.9677M9.3446 42.5409H21.2152M9.3446 35.5513H28.1793M9.3446 28.641H33.7981M9.3446 21.6513H33.7981" stroke="#0B3D3A" stroke-width="0.8"/>
</svg>
