<svg width="56" height="58" viewBox="0 0 56 58" fill="none" xmlns="http://www.w3.org/2000/svg">
<path d="M11.6763 51.7718C11.6763 51.7718 11.6763 44.5104 11.6763 43.5809C11.6763 42.6515 14 40.3278 14.1162 40.2116M11.6763 51.7718C11.6763 51.7718 11.6763 55.3154 11.6763 56.1286C11.6763 56.9419 12.0249 57 12.5477 57C13.0705 57 18.1245 57 18.5892 57C19.0539 57 19.5187 56.7676 19.5187 56.1286C19.5187 55.4896 19.5187 51.7718 19.5187 51.7718M11.6763 51.7718H19.5187M14.1162 40.2116C14.2324 40.0954 16.0332 34.3444 16.3817 33.4149C16.7303 32.4855 18.0083 31.6141 18.7635 31.6141C19.5187 31.6141 36.0166 31.6141 37.0041 31.6141C37.9917 31.6141 39.3859 32.1369 39.8506 33.4149C40.3153 34.6929 42.1162 39.9793 42.3485 40.2116M14.1162 40.2116H42.3485M42.3485 40.2116C42.5809 40.444 44.2075 42.4191 44.2656 43.5809C44.3236 44.7427 44.2656 51.7718 44.2656 51.7718M44.2656 51.7718C44.2656 51.7718 44.2656 55.3734 44.2656 56.1286C44.2656 56.8838 43.8008 57 43.5104 57C43.2199 57 38.0498 57 37.3527 57C36.6556 57 36.3651 56.8838 36.3651 56.1286C36.3651 55.3734 36.3651 51.7718 36.3651 51.7718M44.2656 51.7718H36.3651M19.5187 51.7718H36.3651M1.33609 57V17.1494L27.6514 1L54.6639 17.1494V57H51.1203V22.3195H5.17012V57H1.33609ZM20.4481 46.5436C20.4481 48.0515 19.2257 49.2739 17.7178 49.2739C16.2099 49.2739 14.9875 48.0515 14.9875 46.5436C14.9875 45.0357 16.2099 43.8133 17.7178 43.8133C19.2257 43.8133 20.4481 45.0357 20.4481 46.5436ZM40.9543 46.5436C40.9543 48.0515 39.732 49.2739 38.2241 49.2739C36.7162 49.2739 35.4938 48.0515 35.4938 46.5436C35.4938 45.0357 36.7162 43.8133 38.2241 43.8133C39.732 43.8133 40.9543 45.0357 40.9543 46.5436ZM23.527 49.2739H32.473C33.1147 49.2739 33.6348 48.7537 33.6348 48.112V44.9751C33.6348 44.3334 33.1147 43.8133 32.473 43.8133H23.527C22.8853 43.8133 22.3651 44.3334 22.3651 44.9751V48.112C22.3651 48.7537 22.8853 49.2739 23.527 49.2739Z" stroke="#0B3D3A" stroke-width="0.8"/>
</svg>
