<svg width="29" height="58" viewBox="0 0 29 58" fill="none" xmlns="http://www.w3.org/2000/svg">
<path d="M6.27219 2.68105C4.30177 3.25891 1 4.78236 1 4.78236V6.46341C1 6.46341 5.26035 5.62289 6.75148 5.46529C8.2426 5.30769 12.2899 5.20263 12.2899 5.20263V11.6642H19.1065V5.20263L21.9823 5.46529C21.9823 5.46529 22.2485 4.88743 21.6095 3.20638C20.9704 1.52533 19.1065 1 18.4675 1C17.8284 1 14.2071 1.10507 12.6627 1.3152C11.1183 1.52533 8.2426 2.10319 6.27219 2.68105Z" stroke="#0B3D3A" stroke-width="0.8"/>
<path d="M23.7396 19.439H7.6568V13.8705C7.85464 13.1007 8.103 12.851 8.8284 12.7148H22.6213C23.37 12.8793 23.5465 13.1952 23.7396 13.8705V19.439Z" stroke="#0B3D3A" stroke-width="0.8"/>
<path d="M24.1657 20.122H7.12426C7.12426 20.122 5.68639 21.1726 4.51479 23.7467C3.34319 26.3208 3.34319 28.3171 3.34319 28.3171V51.2214C3.34319 51.2214 3.28994 52.6398 4.88757 54.7411C6.48521 56.8424 9.04142 57 9.04142 57H22.5148C22.5148 57 25.1243 56.5797 26.5621 54.7411C28 52.9024 28 51.2214 28 51.2214V28.3171C28 28.3171 27.6272 25.6379 26.7751 23.7467C25.9231 21.8555 24.1657 20.122 24.1657 20.122Z" stroke="#0B3D3A" stroke-width="0.8"/>
</svg>
