<svg width="34" height="58" viewBox="0 0 34 58" fill="none" xmlns="http://www.w3.org/2000/svg">
<path d="M5.5964 12.4572C5.5964 12.4572 5.35937 11.8727 6.42602 11.7558C7.49268 11.6388 7.6112 12.3403 7.6112 12.3403M5.5964 12.4572C5.5964 12.4572 5.71492 13.0418 6.66306 12.9249C7.6112 12.8079 7.6112 12.3403 7.6112 12.3403M5.5964 12.4572L7.8937 37.5929M7.6112 12.3403L9.93826 37.5929M13.2998 19.238C13.2998 19.1211 13.6554 18.6534 14.485 18.7704C15.3146 18.8873 15.4331 19.4718 15.4331 19.5887M13.2998 19.238C13.2998 19.3549 13.2998 19.8225 14.3665 19.9395C15.4331 20.0564 15.4331 19.7056 15.4331 19.5887M13.2998 19.238L12.8507 23.9144M15.4331 19.5887L15.1637 22.3946M12.8507 23.9144L15.1637 22.3946M12.8507 23.9144L12.6823 25.6681M15.1637 22.3946L14.9952 24.1482M12.6823 25.6681L14.9952 24.1482M12.6823 25.6681L11.537 37.5929M14.9952 24.1482L13.704 37.5929M7.8937 37.5929L8.20357 40.9833C8.20357 40.9833 8.32209 41.9186 9.38874 41.8017C10.4554 41.6848 10.2184 40.6326 10.2184 40.6326L9.93826 37.5929M7.8937 37.5929C7.8937 37.5929 0.973997 38.9958 0.736962 41.4509M0.736962 41.4509C0.499927 43.9061 9.17666 45.0752 10.9295 45.0752C12.0975 45.0752 16.0247 44.6079 18.5149 43.535M0.736962 41.4509C0.736962 41.4509 0.500254 44.6075 1.09284 47.7641C1.68543 50.9207 3.93752 52.6743 5.35947 53.3758M20.6479 41.4509C20.648 42.309 19.7615 42.9979 18.5149 43.535M20.6479 41.4509C20.6479 41.0986 20.5176 40.7704 20.2927 40.4664M20.6479 41.4509C20.8937 43.0998 20.8542 43.9291 20.4888 45.2325M13.704 37.5929L13.2998 41.8017C13.2998 41.8017 13.1813 42.737 12.1146 42.62C11.048 42.5031 11.1665 41.4509 11.1665 41.4509L11.537 37.5929M13.704 37.5929C13.704 37.5929 17.635 38.3209 19.5816 39.777M9.93826 37.5929C10.5278 37.5059 10.8869 37.5238 11.537 37.5929M20.7668 50.8038C20.7668 50.8038 18.3964 49.4008 18.1594 47.1795C18.1097 46.7139 18.0964 46.2833 18.1066 45.8935M20.7668 50.8038C20.7668 50.8038 21.0373 50.4924 21.3558 50.3361M20.7668 50.8038C20.7668 50.8038 20.4964 51.4261 20.9774 51.818M20.7668 50.8038C20.7668 50.8038 19.5816 50.5699 18.1594 50.8038C16.7372 51.0376 16.1446 53.3758 16.1446 53.3758M18.5149 43.535C18.5149 43.535 19.6703 44.1717 20.4888 45.2325M18.5149 43.535C18.5149 43.535 18.1447 44.4241 18.1066 45.8935M21.3558 50.3361C21.5538 50.239 21.7703 50.2017 21.9519 50.3361C22.104 50.4486 22.2072 50.6212 22.2774 50.8038M21.3558 50.3361C21.3558 50.3361 21.4417 49.7937 21.435 48.9332M21.435 48.9332C21.4305 48.3533 21.384 47.629 21.2408 46.8288C21.1335 46.2289 20.8427 45.6911 20.4888 45.2325M21.435 48.9332C21.435 48.9332 21.5901 48.1557 22.2561 47.1795M22.2774 50.8038C22.426 51.1905 22.426 51.6221 22.426 51.6221C22.426 51.6221 22.3784 51.716 22.2774 51.818M22.2774 50.8038C22.2774 50.8038 24.4408 49.7516 25.9815 48.1148C27.5223 46.4781 26.5741 44.1399 26.5741 44.1399C26.5741 44.1399 24.5593 44.7244 23.1371 46.1273C22.7736 46.4859 22.4848 46.8444 22.2561 47.1795M22.2774 50.8038C22.2774 50.8038 24.3223 49.8685 26.5741 50.1023C28.826 50.3361 30.4852 52.4405 30.4852 52.4405C30.4852 52.4405 29.1815 54.428 25.626 53.4927C25.1187 53.3592 24.6879 53.2298 24.3223 53.1059M22.2774 51.818C22.1023 51.9946 21.7669 52.1953 21.2408 51.9729C21.1347 51.928 21.0479 51.8755 20.9774 51.818M22.2774 51.818C22.2774 51.818 22.1253 52.3614 24.3223 53.1059M20.9774 51.818C20.9774 51.818 21.1223 53.3758 21.7149 54.7787C22.3075 56.1816 25.1519 57 25.1519 57C25.3351 55.3556 25.3019 54.4665 24.3223 53.1059M20.9774 51.818C20.9774 51.818 20.7668 53.4927 18.989 53.9603C17.2112 54.428 16.1446 53.3758 16.1446 53.3758M16.1446 53.3758C12.0602 54.2595 6.78143 54.0772 5.35947 53.3758M16.1446 53.3758C16.1446 53.3758 16.6184 53.8434 16.6184 54.3111C16.6184 54.7787 16.1446 55.1294 16.1446 55.1294C16.1446 55.1294 14.9591 56.2985 11.537 56.4154C8.11492 56.5324 5.83329 55.3633 5.83329 55.3633C5.83329 55.3633 5.00367 54.7787 5.00367 54.428C5.00367 54.0772 5.35947 53.3758 5.35947 53.3758M22.2561 47.1795C22.2561 47.1795 23.462 43.1221 23.5986 40.5032M23.6112 40.048C23.6112 37.476 21.9519 34.5532 21.9519 34.5532M23.6112 40.048C23.6112 40.048 25.5075 38.4113 27.6408 38.4113C29.7741 38.4113 32.5 39.9311 32.5 39.9311C32.5 39.9311 30.9593 41.9186 27.8778 41.9186C24.7964 41.9186 23.6112 40.7495 23.6112 40.7495M23.6112 40.048C23.6112 40.048 22.7816 38.6451 21.5964 37.9436C20.4112 37.2422 18.1594 37.476 18.1594 37.476C18.5493 38.4544 18.8818 38.9524 19.5816 39.777M23.6112 40.048C23.6112 40.1938 23.6068 40.3459 23.5986 40.5032M21.9519 34.5532C21.9519 34.5532 20.5297 34.904 19.8186 33.618C19.1075 32.3319 19.8186 31.2797 19.8186 31.2797C19.8186 31.2797 21.7149 31.3967 22.189 32.6827C22.663 33.9687 21.9519 34.5532 21.9519 34.5532ZM19.5816 39.777C19.8678 39.9911 20.1111 40.2209 20.2927 40.4664M20.2927 40.4664C21.5698 40.9197 22.2903 40.989 23.5986 40.5032M0.5 44.1399C0.5 44.1399 5.47774 47.6472 10.6925 47.4134C15.9073 47.1795 18.1066 45.8935 18.1066 45.8935M8.08505 1C8.08505 1 10.5739 2.40292 10.4554 4.85804C10.3369 7.31315 8.67764 7.43006 8.67764 8.83299C8.67764 10.2359 9.50726 11.5219 9.50726 11.5219C9.50726 11.5219 9.7443 9.65136 10.4554 8.59916C11.1665 7.54697 12.2332 8.36534 12.8258 5.67641C13.4183 2.98747 8.08505 1 8.08505 1ZM17.922 10.7035C17.922 10.7035 16.4998 11.0543 15.9072 11.7558C15.3146 12.4572 15.6702 13.2756 15.7887 13.5094C15.9072 13.7432 16.6183 14.3278 16.4998 15.1461C16.3813 15.9645 16.2628 16.3152 16.2628 16.3152C16.2628 16.3152 17.0924 15.9645 17.3294 15.38C17.5665 14.7954 17.4479 14.3278 17.3294 13.977C17.2109 13.6263 16.8554 13.1587 16.9739 12.3403C17.0924 11.5219 17.922 10.7035 17.922 10.7035Z" stroke="#0B3D3A" stroke-width="0.8"/>
</svg>
