<svg width="61" height="58" viewBox="0 0 61 58" fill="none" xmlns="http://www.w3.org/2000/svg">
<path d="M8.3758 25.5246H22.3236M8.3758 29.4882H22.3236M8.3758 33.6266H22.3236M8.3758 37.5319H29.2686M43.6215 39.1576C42.466 39.5031 41.2422 39.6886 39.9754 39.6886C32.9115 39.6886 27.1851 33.9213 27.1851 26.8069C27.1851 19.6926 32.9115 13.9253 39.9754 13.9253C47.0393 13.9253 52.7657 19.6926 52.7657 26.8069C52.7657 30.6594 51.0865 34.1169 48.4251 36.4775M43.6215 39.1576L44.8947 41.2008M43.6215 39.1576C45.4201 38.6198 47.0531 37.6944 48.4251 36.4775M44.8947 41.2008L44.0266 41.7286L46.7875 46.5665M44.8947 41.2008L49.6404 38.3149M44.8947 41.2008H6.35019V6.58106H54.7334V41.2008H52.009M48.4251 36.4775L49.6404 38.3149M49.6404 38.3149L50.1613 37.9982L52.009 41.2008M52.009 41.2008L55.1049 46.5665M46.7875 46.5665L51.1452 54.2022C51.1452 54.2022 53.4602 56.592 56.0066 55.0183C58.5531 53.4445 57.6271 50.9381 57.6271 50.9381L55.1049 46.5665M46.7875 46.5665C46.7875 46.5665 42.4829 46.5727 36.6186 46.579M55.1049 46.5665C55.1049 46.5665 56.1803 46.5665 57.222 46.5665C58.2638 46.5665 60 45.5174 60 43.4773C60 41.4371 60 6.58106 60 4.36612C60 2.15118 58.2638 1.102 56.1224 1.04371C53.981 0.985432 6.69744 0.985426 4.4982 1.04371C2.29896 1.102 1.02572 2.5592 1.02572 4.36612C1.02572 6.17304 0.967847 41.0291 1.02572 43.4773C1.0836 45.9254 2.81984 46.5083 4.4982 46.5665C5.29017 46.594 14.7508 46.5956 24.5228 46.5895M24.5228 46.5895V49.0953M24.5228 46.5895C28.7177 46.5869 32.97 46.5829 36.6186 46.579M24.5228 49.0953C22.0769 49.1024 20.1863 49.1144 19.6035 49.1311C17.5779 49.1894 16.0731 50.7632 16.0731 52.6284C16.0731 54.4936 16.0731 57 16.0731 57H45.0683C45.0683 57 45.0683 54.7268 45.0683 52.6284C45.0683 50.53 43.5057 49.1894 41.4801 49.1311C40.9019 49.1145 39.0365 49.1026 36.6186 49.0955M24.5228 49.0953C24.5613 49.0952 24.5999 49.0951 24.6386 49.095C28.2543 49.0847 33.0412 49.0849 36.6186 49.0955M36.6186 46.579V49.0955M31.0627 27.2149H34.8824C34.8824 27.2149 35.982 24.3588 36.3293 24.3588C36.6765 24.3588 38.2391 30.071 38.6442 30.0127C39.0494 29.9544 39.9754 19.5792 40.4384 19.5792C40.9014 19.5792 42.6955 27.2149 42.6955 27.2149H47.0939M11.8483 12.1767V8.67942H18.7354V12.1767H22.3236V19.1712H18.7354V22.7851H11.8483V19.1712H8.3758V12.1767H11.8483Z" stroke="#0B3D3A" stroke-width="0.8"/>
</svg>
