<svg width="71" height="58" viewBox="0 0 71 58" fill="none" xmlns="http://www.w3.org/2000/svg">
<path d="M8.97794 50.0642C7.83094 50.0642 7.09357 50.0642 6.91912 50.0642C5.63235 50.0642 4.34559 48.7798 4.34559 47.4954C4.34559 46.211 4.34559 33.367 4.34559 33.367C2.66102 33.0339 1 32.3394 1 31.3119C1 30.2844 1 25.1468 1 24.3761C1 23.6055 2.54412 22.578 3.31618 22.578C4.08824 22.578 4.60294 22.8349 5.11765 22.578C5.63235 22.3211 6.66176 12.0459 7.43382 7.93578C8.20588 3.82569 12.8382 1 16.1838 1C19.5294 1 32.3971 1 34.9706 1C37.5441 1 41.6618 4.85321 42.1765 7.93578C42.6912 11.0183 43.7206 22.578 44.4926 22.578C45.2647 22.578 48.6103 22.3211 48.6103 25.1468C48.6103 27.9725 48.6103 30.7982 48.6103 31.3119C48.6103 31.8257 46.6464 33.2968 45.0074 33.367C45.0074 33.367 45.0074 45.6972 45.0074 47.4954C45.0074 49.2936 42.1765 50.0642 41.1471 50.0642C41.0846 50.0642 40.9085 50.0642 40.6324 50.0642M8.97794 50.0642V56.7431M8.97794 50.0642C15.7779 50.0642 36.9749 50.0642 40.6324 50.0642M40.6324 50.0642V56.7431M1 57H58.6471M71 57H58.6471M9.23529 23.0917C11.5843 23.4437 13.6103 24.633 13.6103 26.1743C13.6103 26.627 13.6103 28.3431 13.6103 30.5413M13.6103 43.8991C13.6103 43.8991 13.6103 35.8266 13.6103 30.5413M36 43.8991C36 43.8991 36 35.8584 36 30.5413M40.6324 23.0917C37.9394 23.3108 36 24.1193 36 26.1743C36 26.7573 36 28.4357 36 30.5413M13.6103 30.5413C13.6103 30.5413 18.2426 27.4587 24.4191 27.4587C30.5956 27.4587 36 30.5413 36 30.5413M58.6471 57V17.9541M47.0662 17.9541H55.0441M70.4853 17.9541H55.0441M55.0441 17.9541V11.2752M55.0441 11.2752L49.8971 5.62385H60.1912L55.0441 11.2752Z" stroke="#0B3D3A" stroke-width="0.8"/>
</svg>
