<svg width="49" height="58" viewBox="0 0 49 58" fill="none" xmlns="http://www.w3.org/2000/svg">
<path d="M6.01489 50.7102H0.5V57H40.3298V50.7102H38.083M6.01489 50.7102L14.7979 35.6957H29.5043L32.1706 40.3624M6.01489 50.7102H38.083M38.083 50.7102L32.1706 40.3624M21.334 35.4928L31.7977 21.0869M32.1706 40.3624L43.1894 25.145C43.1894 25.145 43.7394 23.1415 42.997 21.0869M31.7977 21.0869L32.9766 19.4639C32.9766 19.4639 37.0617 15.8117 40.7383 18.2465C41.9517 19.0501 42.6312 20.0747 42.997 21.0869M31.7977 21.0869H15.0021C15.0021 21.0869 11.9383 20.2753 11.9383 17.4347M11.9383 17.4347C11.9383 14.5942 15.0021 13.9855 15.0021 13.9855H18.883M11.9383 17.4347L10.3293 14.7971M42.997 21.0869H45.4362C45.4362 21.0869 48.5 20.0724 48.5 17.4347C48.5 14.7971 45.6404 13.9855 45.6404 13.9855H18.883M14.1851 5.46375C14.1851 7.92901 12.1732 9.9275 9.69149 9.9275C8.50743 9.9275 7.43033 9.47259 6.62766 8.72911M14.1851 5.46375C14.1851 2.99849 12.1732 1 9.69149 1C7.20973 1 5.19787 2.99849 5.19787 5.46375C5.19787 5.81272 5.23818 6.15233 5.31443 6.47824M14.1851 5.46375L18.883 13.9855M6.62766 8.72911C5.9861 8.13486 5.51985 7.35625 5.31443 6.47824M6.62766 8.72911L10.3293 14.7971M8.46596 26.1593C8.46596 28.1764 6.81989 29.8115 4.78936 29.8115C2.75883 29.8115 1.11277 28.1764 1.11277 26.1593C1.11277 25.2239 1.46677 24.3707 2.04894 23.7246M8.46596 26.1593C8.46596 24.1423 6.81989 22.5072 4.78936 22.5072C3.70048 22.5072 2.72215 22.9774 2.04894 23.7246M8.46596 26.1593L10.3293 14.7971M5.31443 6.47824L2.04894 23.7246M39.9213 22.913C39.9213 24.2577 38.8239 25.3477 37.4702 25.3477C36.1165 25.3477 35.0191 24.2577 35.0191 22.913C35.0191 21.5683 36.1165 20.4782 37.4702 20.4782C38.8239 20.4782 39.9213 21.5683 39.9213 22.913Z" stroke="#0B3D3A" stroke-width="0.8"/>
</svg>
